<?xml version="1.0" standalone="no"?>
<!DOCTYPE svg PUBLIC "-//W3C//DTD SVG 1.1//EN" "http://www.w3.org/Graphics/SVG/1.1/DTD/svg11.dtd" >
<svg xmlns="http://www.w3.org/2000/svg">
<metadata></metadata>
<defs>
<font id="book_antiquabold" horiz-adv-x="1024" >
<font-face units-per-em="2048" ascent="1638" descent="-410" />
<missing-glyph horiz-adv-x="512" />
<glyph horiz-adv-x="0" />
<glyph horiz-adv-x="682" />
<glyph unicode=" "  horiz-adv-x="512" />
<glyph unicode="&#x09;" horiz-adv-x="512" />
<glyph unicode="&#xa0;" horiz-adv-x="512" />
<glyph unicode="!" horiz-adv-x="569" d="M123 133q0 66 47 113t113 47t112.5 -46.5t46.5 -113.5q0 -66 -46.5 -113t-112.5 -47t-113 47t-47 113zM133 1298q115 55 207 91h106q-2 -151 -42 -409q-36 -234 -78 -549l-76 -43l-13 9q-22 205 -78 602q-25 178 -26 299z" />
<glyph unicode="&#x22;" horiz-adv-x="823" d="M123 1263q0 74 31.5 114t79.5 40t79.5 -40t31.5 -112q0 -42 -7 -88l-47 -336q-7 -51 -58 -51q-49 0 -56 51l-48 336q-6 46 -6 86zM478 1259q0 77 31 117.5t80 40.5q48 0 79.5 -40t31.5 -115q0 -38 -7 -85l-47 -336q-7 -51 -58 -51q-49 0 -56 51l-48 336q-6 47 -6 82z" />
<glyph unicode="#" horiz-adv-x="1241" d="M107 444v154h237l34 219h-214v154h236l62 416h152l-60 -416h219l61 416h157l-61 -416h191v-154h-214l-30 -219h193v-154h-217l-65 -444h-158l65 444h-220l-65 -444h-156l66 444h-213zM500 598h217l34 219h-220z" />
<glyph unicode="$" d="M53 964q0 190 100.5 298.5t297.5 134.5q-2 53 -8 143l59 -1l54 1q-7 -74 -7 -143q100 -1 176.5 -17t164.5 -54l4 -21q-24 -124 -29 -279h-86l-7 162q-44 48 -93.5 70.5t-129.5 28.5v-440q180 -28 259.5 -72t121 -119t41.5 -187q0 -122 -51.5 -223t-137.5 -161.5 t-233 -86.5q-1 -106 4 -203h-110q7 110 8 197q-113 0 -200 18t-179 59l-17 25q17 125 17 305h88l9 -163q57 -67 120.5 -98t161.5 -36v493q-166 18 -241.5 60t-116 116.5t-40.5 192.5zM262 1061q0 -93 63 -149q43 -38 126 -51v423q-91 -20 -133 -68q-56 -63 -56 -155z M549 112q94 27 140 77q63 69 63 173q0 88 -48 142t-155 73v-465z" />
<glyph unicode="%" horiz-adv-x="1821" d="M70 971q0 239 82.5 341.5t233.5 102.5q145 0 214.5 -88.5t69.5 -321.5q0 -243 -81.5 -348.5t-227.5 -105.5q-94 0 -161.5 43t-98.5 123.5t-31 253.5zM244 1048q0 -261 44 -358q27 -61 87 -61q58 0 89.5 57t31.5 239q0 258 -43 352q-27 60 -88 60q-58 0 -89.5 -55 t-31.5 -234zM465 -67q47 76 117 217l562 1122q57 114 78 186q57 -7 86 -7l48 1q-52 -82 -118 -214l-561 -1127l-52 -107q-11 -26 -26 -73l-74 4zM1151 405q0 239 82.5 341.5t233.5 102.5q145 0 214.5 -88.5t69.5 -321.5q0 -243 -81.5 -348.5t-227.5 -105.5q-94 0 -161.5 43 t-98.5 123.5t-31 253.5zM1325 482q0 -261 44 -358q27 -61 87 -61q58 0 89.5 57t31.5 239q0 258 -43 352q-27 60 -88 60q-58 0 -89.5 -55t-31.5 -234z" />
<glyph unicode="&#x26;" horiz-adv-x="1706" d="M134 375q0 119 65.5 210t253.5 190q-67 146 -67 255q0 62 13 101q7 22 40 58l72 79q82 92 123 111q77 36 151 36q60 0 115 -29.5t83 -79.5t28 -116q0 -107 -73 -192.5t-251 -200.5q158 -244 415 -464q39 58 53 99t14 91q0 73 -41 149h-50q-38 1 -125 -5l-11 16 q38 56 66 123q163 -7 295 -7q207 0 338 17l14 -10q-28 -74 -35 -144l-13 -12q-196 15 -287 17q13 -41 13 -74q0 -153 -142 -316q170 -99 320 -99q24 0 42 9q52 27 109 70l32 -66q-102 -101 -187 -202q-65 -16 -120 -16q-178 0 -371 142q-101 -77 -197.5 -109.5t-215.5 -32.5 q-215 0 -342 116t-127 286zM382 486q0 -147 109 -261t244 -114q94 0 195 68q-141 116 -238.5 231t-197.5 282q-112 -72 -112 -206zM579 1134q0 -112 64 -251q109 72 151.5 136.5t42.5 127.5q0 40 -16 72.5t-48 51.5t-58 19q-44 0 -90 -37.5t-46 -118.5z" />
<glyph unicode="'" horiz-adv-x="465" d="M121 1263q0 74 31.5 114t79.5 40t79.5 -40t31.5 -112q0 -42 -7 -88l-47 -336q-7 -51 -58 -51q-49 0 -56 51l-48 336q-6 46 -6 86z" />
<glyph unicode="(" horiz-adv-x="682" d="M149 510q0 214 50 390t146 322t247 271l51 -62q-90 -124 -133.5 -230.5t-63.5 -252.5t-20 -438q0 -298 20 -440.5t63.5 -249.5t133.5 -231l-51 -62q-151 125 -247 271t-146 322t-50 390z" />
<glyph unicode=")" horiz-adv-x="682" d="M39 -411q90 124 133.5 231t63.5 252t20 438q0 299 -20 440.5t-63.5 249t-133.5 231.5l51 62q151 -124 247 -270t146 -322t50 -391t-50 -391t-146 -322t-247 -270z" />
<glyph unicode="*" horiz-adv-x="909" d="M89 926l8 18q168 56 282 104l-282 121l-8 17q65 95 95 155h34q100 -119 204 -234l29 292l18 13q93 -32 189 -45l10 -30q-58 -81 -173 -262l293 64l10 -9q8 -84 23 -174l-23 -23q-167 44 -315 72l163 -249l-7 -14q-100 -36 -170 -73l-34 15q-9 161 -22 298l-206 -215 l-36 6q-34 79 -82 153z" />
<glyph unicode="+" horiz-adv-x="1241" d="M111 601v187h416v416h187v-416h416v-187h-416v-417h-187v417h-416z" />
<glyph unicode="," horiz-adv-x="512" d="M-20 -318q73 128 117 268t53 261q160 23 274 70l37 -34q-129 -287 -301 -532q-53 -27 -147 -67z" />
<glyph unicode="-" horiz-adv-x="682" d="M10 398q40 87 66 209q185 -7 302 -7q123 0 281 7l14 -20q-37 -91 -70 -208q-166 6 -297 6q-134 0 -282 -6z" />
<glyph unicode="." horiz-adv-x="512" d="M96 133q0 66 46.5 113t113.5 47q66 0 112.5 -46.5t46.5 -113.5q0 -66 -46.5 -113t-112.5 -47t-113 47t-47 113z" />
<glyph unicode="/" horiz-adv-x="606" d="M-259 -420q48 93 118 267l562 1383q42 105 50 130q12 36 26 98q130 -8 153 -8l85 1q-53 -104 -118 -263l-561 -1388l-52 -133q-11 -32 -25 -89l-133 4z" />
<glyph unicode="0" d="M55 673q0 290 57.5 441.5t166 226t257.5 74.5q147 0 241 -64t143 -201t49 -419q0 -291 -59 -449.5t-163 -233.5t-250 -75q-141 0 -243 70t-150.5 204t-48.5 426zM303 804q0 -318 29 -471t84 -209q42 -42 104 -42q95 0 142 88q59 108 59 422q0 383 -56 569 q-43 146 -161 146q-95 0 -148 -95.5t-53 -407.5z" />
<glyph unicode="1" d="M29 1178l8 15q376 108 624 209l26 -15q-13 -139 -19.5 -379t-6.5 -581q0 -233 13 -290q6 -26 23 -35q25 -14 203 -25l12 -12v-60l-12 -12l-124 3q-188 4 -254 4q-184 0 -400 -7l-10 12v60l10 12q192 17 216 27q19 8 27 25q13 28 18 197q8 289 8 512q0 293 -6 326 q-4 18 -19 18q-9 0 -28 -8l-275 -126l-13 8q-8 73 -21 122z" />
<glyph unicode="2" d="M37 -10v112l206 201q254 248 328 378.5t74 252.5t-60 187t-164 65q-77 0 -135.5 -34t-72.5 -67q-6 -15 -43 -170h-84q33 201 41 353q78 77 166.5 112t200.5 35q198 0 313 -107.5t115 -277.5q0 -137 -90 -275t-499 -507l6 -13h235q260 0 402 13l11 -13q-10 -86 -10 -129 q0 -44 10 -106l-11 -10q-195 10 -446 10q-186 0 -493 -10z" />
<glyph unicode="3" d="M48 348l71 18q56 -150 137 -213t189 -63q113 0 185 76.5t72 200.5t-74 198t-203 74q-48 0 -117 -16l-14 14q20 59 42 157q41 -4 61 -4q111 0 179.5 62.5t68.5 157.5q0 84 -55.5 137t-149.5 53q-64 0 -119 -23t-73 -46t-58 -140l-79 5q48 171 65 318q79 54 158 77.5 t174 23.5q178 0 275 -83t97 -216q0 -98 -50.5 -170.5t-180.5 -139.5q120 -14 179.5 -51t95.5 -107.5t36 -160.5q0 -229 -211 -384q-177 -130 -398 -130q-66 0 -129.5 15t-124.5 44q-19 149 -49 316z" />
<glyph unicode="4" d="M0 434q91 212 239.5 472.5t285.5 445.5q102 17 256 50l22 -20q-9 -141 -14 -293l-15 -570q111 0 185 3l6 -15l-1 -32l-2 -60l1 -63l-4 -8q-89 8 -185 8l-1 -46q0 -175 15 -195q21 -26 171 -36l10 -6v-72l-10 -7q-192 10 -329 10q-77 0 -132 -2l-221 -8l-9 9v76l9 8 q171 10 190 16q28 9 36 34q10 31 18 219q-290 0 -507 -5l-4 27zM151 519q105 -3 174 -3l196 3l15 684q-64 -83 -187.5 -299t-197.5 -385z" />
<glyph unicode="5" d="M31 309v8l65 21q81 -147 157 -197.5t176 -50.5q117 0 189 80t72 217q0 139 -75 218t-203 79q-61 0 -113 -18.5t-121 -68.5l-41 23q19 251 19 411q0 201 -17 358l14 12q222 -12 409 -12q179 0 321 11l11 -21q-11 -66 -11 -113q0 -27 4 -100l-15 -14q-184 7 -365 7 q-121 0 -241 -4l-11 -331q72 43 130.5 59t133.5 16q201 0 310 -103.5t109 -283.5q0 -219 -171 -379t-426 -160q-66 0 -127.5 12.5t-117.5 37.5q-22 133 -65 286z" />
<glyph unicode="6" d="M59 559q0 271 95 452t273.5 291.5t384.5 112.5l86 -75l-33 -35q-59 10 -89 10q-98 0 -201.5 -70t-163.5 -193t-79 -346q115 118 159 139q60 30 150 30q144 0 234 -103.5t90 -288.5q0 -227 -135 -375q-123 -135 -319 -135q-133 0 -236 66.5t-159.5 190.5t-56.5 329z M326 462q0 -207 57.5 -293.5t150.5 -86.5q81 0 132 69t51 215q0 174 -60 258q-51 70 -144 70q-90 0 -138.5 -55.5t-48.5 -176.5z" />
<glyph unicode="7" d="M76 897q7 113 7 266q0 98 -7 225l16 17q292 -17 601 -17q141 0 340 6v-96q-206 -353 -383 -731.5t-243 -574.5q-81 8 -121 8q-45 0 -116 -8l-10 30q103 164 192.5 314t271.5 466l180 319l-10 16l-203 1l-179 1q-154 0 -186 -12q-18 -7 -28 -29q-17 -39 -32 -199l-8 -9z " />
<glyph unicode="8" d="M45 349q0 119 53.5 198t192.5 144q-111 58 -160 137t-49 188q0 172 123 285.5t325 113.5q176 0 268.5 -84t92.5 -228q0 -88 -43 -156.5t-157 -140.5q129 -51 185 -120q76 -93 76 -240q0 -202 -138 -337.5t-354 -135.5q-187 0 -301 106t-114 270zM237 367 q0 -124 75 -204.5t184 -80.5q97 0 162 69.5t65 175.5q0 64 -27.5 116.5t-81.5 90.5t-235 116q-76 -64 -109 -132.5t-33 -150.5zM291 1116q0 -79 55.5 -136.5t245.5 -133.5q63 49 94 108t31 128q0 105 -59 165t-161 60q-95 0 -150.5 -53.5t-55.5 -137.5z" />
<glyph unicode="9" d="M57 916q0 222 129 360.5t326 138.5q135 0 238 -66t158.5 -187t55.5 -328q0 -282 -91 -464t-264 -295.5t-399 -125.5l-85 67l24 38q61 -7 85 -7q112 0 216 70t162.5 197.5t76.5 378.5q-112 -117 -158 -139q-61 -30 -151 -30q-143 0 -233 103.5t-90 288.5zM305 1031 q0 -174 61 -257q50 -69 149 -69q84 0 132.5 56t48.5 179q0 198 -57.5 282.5t-150.5 84.5q-83 0 -133 -67t-50 -209z" />
<glyph unicode=":" horiz-adv-x="512" d="M96 133q0 66 46.5 113t113.5 47q66 0 112.5 -46.5t46.5 -113.5q0 -66 -46.5 -113t-112.5 -47t-113 47t-47 113zM96 807q0 66 46.5 112.5t113.5 46.5q66 0 112.5 -46.5t46.5 -112.5t-47 -113t-112 -47q-66 0 -113 47t-47 113z" />
<glyph unicode=";" horiz-adv-x="512" d="M-21 -323q68 119 115 266t55 268q159 23 274 70l37 -34q-127 -284 -301 -532q-56 -29 -146 -67zM146 807q0 66 46.5 112.5t113.5 46.5q66 0 112.5 -46.5t46.5 -112.5t-47 -113t-112 -47q-66 0 -113 47t-47 113z" />
<glyph unicode="&#x3c;" horiz-adv-x="1241" d="M111 608v173l1019 464v-207l-761 -344l761 -344v-206z" />
<glyph unicode="=" horiz-adv-x="1241" d="M111 414v187h1019v-187h-1019zM111 788v187h1019v-187h-1019z" />
<glyph unicode="&#x3e;" horiz-adv-x="1241" d="M111 144v206l761 344l-761 344v207l1019 -464v-173z" />
<glyph unicode="?" horiz-adv-x="909" d="M77 1051q42 127 66 265q72 53 144 76t165 23q177 0 279.5 -90t102.5 -224q0 -89 -45 -167t-173 -178q-155 -121 -188 -165.5t-33 -89.5q0 -32 23 -79l-69 -31q-54 80 -54 152q0 49 24.5 101t110.5 157q79 97 103 149.5t24 102.5q0 75 -51 121.5t-143 46.5 q-46 0 -78 -10.5t-70 -40.5q-23 -41 -66 -143l-62 8zM223 133q0 66 47 113t113 47q67 0 113.5 -46.5t46.5 -113.5q0 -66 -47 -113t-113 -47t-113 47t-47 113z" />
<glyph unicode="@" horiz-adv-x="1530" d="M85 682q0 200 95 368t259 263.5t358 95.5q275 0 475 -179q173 -155 173 -391q0 -153 -61 -270t-183 -198.5t-211 -81.5q-59 0 -97 38t-51 130q-66 -88 -105 -115q-60 -43 -132 -43q-106 0 -184 81.5t-78 204.5q0 117 59.5 221.5t162 168t202.5 63.5q67 0 109 -35t59 -106 l32 123h195l-149 -556l-3 -10q-8 -24 -8 -42q0 -28 12 -42t31 -14q41 0 103 54q83 70 136.5 189.5t53.5 228.5q0 183 -153.5 323.5t-376.5 140.5q-176 0 -315.5 -77t-219 -216.5t-79.5 -308.5q0 -166 78.5 -300.5t226 -214.5t325.5 -80q97 0 178.5 28.5t156 85.5t143.5 154 h132q-60 -109 -116 -166q-101 -102 -228.5 -160t-275.5 -58q-201 0 -372 95t-264 254t-93 354zM538 509q0 -73 30 -111t71 -38q56 0 118.5 68t100.5 195.5t38 197.5q0 81 -28.5 118.5t-70.5 37.5q-47 0 -101 -48t-106 -181.5t-52 -238.5z" />
<glyph unicode="A" horiz-adv-x="1593" d="M63 -7v91q94 5 116 19q15 10 47 76q61 130 156 361l354 867h147l452 -1074q88 -209 108.5 -229t126.5 -27v-84q-163 7 -308 7q-173 0 -329 -7v84q119 5 137.5 13.5t18.5 30.5q0 19 -42 130l-66 171q-124 2 -277 2q-133 0 -242 -2l-44 -115q-18 -47 -44 -140 q-6 -21 -6 -38q0 -23 19.5 -32.5t140.5 -19.5v-84q-98 7 -244 7q-139 0 -221 -7zM508 540q92 -5 203 -5q116 0 222 5l-214 513z" />
<glyph unicode="B" horiz-adv-x="1366" d="M70 1312v84l192 -4l147 -3q67 0 198 5q127 5 182 5q222 0 318 -74.5t96 -203.5q0 -133 -95 -217t-268 -120v-8q178 -18 250 -54t116 -112t44 -173q0 -119 -72.5 -225t-192 -162t-336.5 -56q-43 0 -129 3q-80 3 -131 3q-57 0 -235 -7v47q57 34 87 62q12 138 12 610 q0 342 -10 484q-5 77 -21 90q-22 20 -152 26zM536 908l1 -90h52q169 0 237.5 61t68.5 191q0 114 -55.5 168t-182.5 54q-47 0 -115 -8q-6 -307 -6 -376zM537 425l2 -262v-56q58 -15 109 -15q142 0 218 81.5t76 239.5q0 103 -34.5 168.5t-95 97.5t-172.5 32l-101 -1v-26z" />
<glyph unicode="C" horiz-adv-x="1479" d="M80 707q0 311 220.5 509.5t608.5 198.5q129 0 255.5 -23t251.5 -70l7 -15q-18 -54 -25 -104q-13 -87 -20 -216h-84q-6 158 -12 173.5t-55 53t-132.5 61t-184.5 23.5q-240 0 -381.5 -148t-141.5 -412q0 -286 170 -463q157 -164 431 -164q106 0 198.5 22t204.5 77l25 -23 q-26 -50 -46 -102q-116 -61 -223.5 -86.5t-247.5 -25.5q-262 0 -443 92t-278.5 259t-97.5 383z" />
<glyph unicode="D" horiz-adv-x="1706" d="M76 1312v85q151 -5 347 -5l493 5q269 0 408.5 -68t221.5 -208t82 -340q0 -257 -128 -443t-312 -265t-393 -79l-379 6q-91 0 -274 -7v51q69 40 98 60q14 176 14 659q0 209 -4.5 349.5t-13.5 160.5q-4 10 -13 15q-15 8 -147 24zM539 654q0 -394 8 -538q84 -14 172 -14 q223 0 340 64t189.5 209.5t72.5 357.5q0 279 -144 425q-127 130 -415 130q-62 0 -215 -10z" />
<glyph unicode="E" horiz-adv-x="1251" d="M79 1312v84q236 -9 373 -9l551 6q87 0 157 -7l7 -11q-22 -109 -32 -290h-79q-5 146 -11.5 156t-45.5 19q-83 18 -254 18q-84 0 -196 -7q-13 -309 -15 -492q107 -7 201 -7q139 0 167 9q17 6 24 29q6 18 14 126h86q-5 -169 -5 -220l5 -225h-86q-7 131 -18 151q-6 12 -27 17 q-50 11 -225 11q-55 0 -129 -6q-2 -53 -2 -108q0 -286 10 -440l198 -3q169 0 309 18q25 92 48 209h83q-23 -176 -27 -338q-91 -10 -175 -10q-55 0 -217 4q-151 4 -278 4q-167 0 -352 -7v54q53 24 97 56q20 156 20 656q0 341 -7 452q-3 59 -20.5 74.5t-148.5 26.5z" />
<glyph unicode="F" horiz-adv-x="1139" d="M74 -7v84q127 1 148 19q16 12 19 71q12 195 12 450q0 189 -5 405.5t-17 249.5q-6 15 -17 21q-17 11 -140 18v84q175 -5 301 -5q184 0 386 5q133 4 224 4q65 0 124 -4l10 -21q-21 -127 -26 -299h-84l-8 107q-3 51 -13.5 62.5t-74 23.5t-181.5 12q-87 0 -184 -9 q-11 -169 -11 -239l2 -215l-1 -46q60 -2 145 -2q153 0 184 7q16 4 23 16q11 21 18 125h86q-3 -88 -3 -175q0 -82 3 -261h-86q-8 130 -19 152q-6 12 -25 17q-48 13 -195 13l-131 -2l4 -384q4 -139 14 -161q7 -14 21 -21q20 -10 167 -18v-84q-160 7 -300 7q-124 0 -370 -7z " />
<glyph unicode="G" horiz-adv-x="1706" d="M94 693q0 328 223 525t640 197q147 0 282 -23t257 -70l9 -15q-29 -127 -43 -316h-84q-1 95 -13 168q-64 74 -164.5 111t-237.5 37q-257 0 -409.5 -156t-152.5 -427q0 -289 160.5 -465.5t395.5 -176.5q125 0 266 61q8 77 8 146q0 154 -18 170t-214 27v81q182 -4 325 -4 q132 0 285 4v-64q-44 -14 -84 -33q-12 -101 -12 -172q0 -51 12 -202q-198 -72 -331.5 -97.5t-276.5 -25.5q-386 0 -604.5 200.5t-218.5 519.5z" />
<glyph unicode="H" horiz-adv-x="1706" d="M70 -7v84q131 6 148.5 17.5t23.5 47.5q10 55 10 277l-1 547q-1 277 -10 302q-5 15 -17 23q-20 13 -154 21v84q200 -7 317 -7q185 0 338 7v-84q-123 -8 -145 -18q-13 -6 -19 -18q-10 -19 -14 -116q-6 -144 -6 -292v-83q104 -5 330 -5q201 0 296 5v70q0 267 -7 362 q-4 57 -21 70q-23 19 -156 25v84q249 -7 337 -7q151 0 319 7v-84q-128 -8 -149 -19q-12 -6 -18 -18q-9 -21 -13 -163q-7 -218 -7 -353l6 -454q2 -154 9 -177t23 -32.5t149 -18.5v-84l-111 3q-125 4 -196 4q-148 0 -349 -7v84q134 6 152.5 21.5t22.5 81.5q7 113 9 482 q-112 4 -249 4q-215 0 -377 -4v-66q0 -262 7 -393q5 -88 24 -102.5t153 -23.5v-84l-118 3q-112 4 -200 4z" />
<glyph unicode="I" horiz-adv-x="797" d="M72 -7v84q138 7 156 23t22 79q7 132 7 492q0 138 -4 400q-2 179 -8 196.5t-21 25.5q-22 11 -152 19v84q206 -8 315 -8q188 0 340 8v-84q-136 -8 -153.5 -21.5t-22.5 -62.5q-9 -96 -9 -389q0 -390 3 -543.5t18 -182.5q6 -13 25.5 -20.5t138.5 -15.5v-84l-118 3 q-112 4 -200 4z" />
<glyph unicode="J" horiz-adv-x="797" d="M-9 -242l24 11q63 -70 143 -70q40 0 61 22.5t27 126.5q10 161 10 403l-2 772q0 198 -9 236q-6 24 -23.5 33.5t-168.5 19.5v84q200 -8 322 -8q177 0 358 8v-84q-32 0 -115 -9q-34 -4 -45.5 -13t-15.5 -25q-9 -30 -10 -220l-2 -406l-3 -306q-2 -248 -8 -297 q-16 -123 -86.5 -227t-197.5 -186q-96 -61 -186 -61q-30 0 -73 13q5 69 5 93q0 25 -5 90z" />
<glyph unicode="K" horiz-adv-x="1593" d="M72 -7v84q122 9 137 16q11 5 16 13q10 14 16 60q11 79 12 292l1 377q0 180 -5.5 301t-15.5 141q-6 13 -20 20q-21 10 -141 15v84q180 -7 321 -7q169 0 320 7v-84q-126 -9 -145.5 -22t-23.5 -63q-5 -63 -6 -504h14q101 81 291 271.5t294 317.5l1 37l-1 37l9 10 q109 -7 186 -7q81 0 182 7v-84l-57 -6q-68 -7 -88 -15q-40 -18 -107 -74q-100 -83 -253 -228l-178 -168l92 -113q163 -200 389 -454q130 -146 156 -161q18 -10 95 -16v-84l-53 2l-178 5q-72 0 -186 -7q-81 104 -274 333q-144 172 -275 312q-17 18 -24 21q-6 2 -12 2 q-15 0 -21 -12q-3 -8 -3 -80l4 -303q2 -133 11 -153q6 -14 20 -20q20 -9 141 -16v-84q-148 7 -328 7q-91 0 -313 -7z" />
<glyph unicode="L" horiz-adv-x="1251" d="M68 1312v84q193 -5 358 -5q160 0 303 5v-84q-138 -9 -159 -24q-13 -9 -18.5 -36.5t-8.5 -323.5l-6 -487q0 -137 7 -317q131 -7 194 -7q189 0 318 29q26 91 51 217h88q-22 -143 -39 -355q-95 -14 -175 -14l-362 4l-162 2h-26q-109 0 -295 -7v52q55 26 104 61 q13 271 13 565q0 231 -5 436q-3 146 -14 168q-5 13 -20.5 19.5t-145.5 17.5z" />
<glyph unicode="M" horiz-adv-x="2048" d="M63 -8v84l60 4q73 4 91.5 25t21.5 142q7 247 7 535q0 153 -2 348q-2 118 -14 144q-6 13 -22 21t-142 17v84q121 -3 237 -3q135 0 260 3q54 -127 112 -252q41 -89 363 -755q340 684 476 1007q120 -5 228 -5q127 0 245 5v-84q-131 -8 -148 -23t-22 -92q-8 -126 -8 -479 q0 -178 4 -376t14 -224q7 -15 20 -23t140 -19v-84q-162 8 -289 8q-128 0 -348 -8v84l59 2q70 3 87.5 19.5t22.5 87t5 332.5v604q-154 -309 -393 -810q-98 -206 -153 -336h-68q-75 172 -201 435l-346 711v-136q0 -564 6 -777q3 -86 23 -106t149 -26v-84q-102 8 -204 8 q-152 0 -271 -8z" />
<glyph unicode="N" horiz-adv-x="1706" d="M68 -7v84q122 5 143 16q14 8 21 26q11 24 14 169q6 240 6 362l-2 423q0 168 -11 194q-6 15 -19 22q-20 12 -152 23v84q158 -5 234 -5q84 0 191 5q230 -294 520 -638q193 -230 333 -380v396q0 225 -6 388q-4 97 -16 119q-6 12 -22 17t-140 14v84q109 -5 217 -5 q148 0 268 5v-84q-112 -7 -135 -16q-13 -5 -21 -14t-12 -23q-7 -24 -8 -154l-3 -400l-2 -403q0 -162 7 -324l-13 -14q-121 22 -171 29q-257 285 -621 716q-184 218 -297 367v-389q0 -159 5 -383q3 -165 14 -190q4 -11 15 -17q19 -11 144 -20v-84q-162 7 -232 7 q-58 0 -249 -7z" />
<glyph unicode="O" horiz-adv-x="1706" d="M80 684q0 232 95 394.5t263.5 249.5t433.5 87q255 0 417 -83.5t249.5 -232t87.5 -364.5q0 -234 -96 -404.5t-270.5 -264t-418.5 -93.5q-369 0 -565 189.5t-196 521.5zM387 724q0 -214 65 -362.5t165.5 -214t261.5 -65.5q201 0 320.5 148.5t119.5 451.5q0 318 -137 488 q-111 137 -342 137q-216 0 -334.5 -143t-118.5 -440z" />
<glyph unicode="P" horiz-adv-x="1251" d="M78 -7v84q119 9 135 19q12 6 18 21q10 25 14.5 207t4.5 353q0 319 -6.5 456t-21 153t-86.5 21l-58 5v84l113 -4q105 -3 167 -3q85 0 274 6q102 4 150 4q179 0 264.5 -34t130 -103t44.5 -172q0 -186 -131.5 -311.5t-334.5 -125.5q-26 0 -55 4t-62 11q-17 36 -36 70l23 25 q22 -5 40.5 -8t33.5 -3q101 0 165 69.5t64 194.5q0 139 -66 207.5t-194 68.5q-52 0 -122 -14q-11 -308 -11 -522q0 -72 8 -459q3 -153 10 -176q5 -17 19 -24q22 -11 170 -20v-84q-177 7 -298 7q-54 0 -366 -7z" />
<glyph unicode="Q" horiz-adv-x="1706" d="M80 684q0 232 95 394.5t263 249.5t433 87q254 0 416 -83.5t249.5 -232t87.5 -364.5q0 -230 -93 -399t-252.5 -258t-438.5 -104q76 -10 142 -29l261 -88q117 -38 186 -52q42 -8 77 -8q43 0 79.5 9.5t108.5 42.5v-60l-116 -81q-83 -57 -114 -72q-21 -9 -49 -9 q-67 0 -151.5 17.5t-275.5 82.5q-139 47 -192 58.5t-90 11.5q-43 0 -80 -13.5t-97 -56.5l-47 45l67 55q110 89 242 147q-323 0 -517 191.5t-194 518.5zM387 728q0 -213 65 -360.5t165 -212.5t261 -65q201 0 320 147.5t119 448.5q0 316 -137 484q-111 137 -341 137 q-216 0 -334 -142t-118 -437z" />
<glyph unicode="R" horiz-adv-x="1479" d="M72 -7v84q116 10 133 19q11 6 16 19q10 24 14 162q5 214 5 337q0 166 -4 422q-4 191 -19 234q-4 13 -16 20q-16 10 -129 22v84q207 -8 267 -8l501 9q163 0 237.5 -31.5t118 -101t43.5 -163.5q0 -120 -69.5 -210.5t-241.5 -160.5l213 -321l166 -246q47 -60 70 -72.5 t75 -13.5v-77l-59 -1q-254 -2 -327 -6q-87 139 -260 403l-206 313q9 17 15 36q40 -5 59 -5q93 0 183 75t90 214q0 121 -71 188t-213 67q-45 0 -122 -7l-7 -295l-9 -374q0 -127 10 -325q8 -149 16 -167q6 -13 22 -21q21 -12 136 -18v-84q-180 7 -319 7q-148 0 -318 -7z" />
<glyph unicode="S" horiz-adv-x="1251" d="M110 76q18 70 24 127q8 79 9 213h88q1 -148 9.5 -173.5t57.5 -67t127 -67.5t160 -26q141 0 225.5 75t84.5 187q0 103 -56 158q-57 55 -216 78q-236 34 -318.5 74t-130 120t-47.5 192q0 188 132.5 318.5t423.5 130.5q114 0 202.5 -17t177.5 -56l10 -24q-16 -63 -22.5 -114 t-11.5 -176h-87q-5 154 -15 173q-19 33 -96.5 69.5t-177.5 36.5q-137 0 -212.5 -66.5t-75.5 -171.5q0 -64 31 -111.5t86.5 -70t238.5 -51.5q166 -25 225 -49q97 -39 147 -119t50 -202q0 -212 -162 -352.5t-443 -140.5q-125 0 -227 24t-211 79z" />
<glyph unicode="T" horiz-adv-x="1366" d="M33 1388l11 8q315 -14 613 -14q297 0 665 14l11 -16q-19 -137 -27 -321h-83q-9 167 -18 181q-7 11 -32 15q-80 13 -318 13q-20 0 -24 -6q-4 -7 -4 -53l-6 -672q0 -292 5 -358.5t24 -80.5q13 -9 157 -21v-84q-147 7 -312 7q-217 0 -352 -7v84q57 0 119 10q29 5 41 16.5 t18 42.5q7 43 12 316q3 194 3 396q0 397 -2.5 404.5t-70.5 7.5q-139 0 -239 -8q-58 -5 -65.5 -10t-11.5 -17.5t-17 -175.5h-86v50q0 159 -11 279z" />
<glyph unicode="U" horiz-adv-x="1593" d="M57 1312v84q204 -7 358 -7q98 0 277 7v-84q-92 0 -130 -16q-13 -5 -21 -17q-11 -14 -15 -47q-6 -56 -10 -322q-3 -185 -3 -376q0 -157 36 -230.5t105 -109.5q100 -51 218 -51q161 0 246 53t114 146t29 407l-1 370q-1 125 -12 150q-6 14 -21 21q-24 14 -146 22v84 q129 -7 238 -7q94 0 231 7v-84q-99 0 -123.5 -22t-29.5 -114q-11 -224 -12 -507q0 -181 -5 -237q-11 -138 -67 -235.5t-186 -160.5t-323 -63q-201 0 -334 60t-189 151.5t-56 268.5l5 450q0 54 -5 275q-2 69 -15 94q-8 14 -24.5 22t-128.5 18z" />
<glyph unicode="V" horiz-adv-x="1593" d="M14 1312v84q190 -7 348 -7q140 0 307 7v-84q-116 -8 -138.5 -18.5t-22.5 -33.5q0 -29 84 -236l283 -690l226 558q125 308 125 370q0 23 -21.5 33t-145.5 17v84q183 -7 245 -7q65 0 232 7v-84q-101 -10 -117 -24q-24 -19 -116 -230l-307 -736q-94 -218 -134 -349h-146 l-354 848q-122 290 -171 393q-28 61 -48.5 74.5t-128.5 23.5z" />
<glyph unicode="W" horiz-adv-x="2048" d="M-33 1312v85q166 -8 293 -8q134 0 309 8v-85q-106 -4 -128.5 -16t-22.5 -41q0 -34 63 -326l113 -522l256 531q150 311 215 459h89l416 -1039l168 621q54 201 54 277q0 32 -21 42.5t-141 13.5v85q185 -8 235 -8q61 0 216 8v-85q-82 -7 -105.5 -25.5t-45.5 -89.5 q-36 -109 -179 -627l-157 -584h-190l-400 1011l-257 -541q-120 -254 -213 -470h-143q-26 121 -167 750l-106 468q-16 70 -35 84.5t-116 23.5z" />
<glyph unicode="X" horiz-adv-x="1366" d="M31 -7v84q90 6 110.5 18t94.5 107l337 449q-158 277 -252.5 425t-141.5 179q-25 17 -61 17q-22 0 -65 -7l-9 82l374 75q61 -44 98.5 -93t140.5 -239l106 -195l245 356q63 91 94 145q55 -8 101 -8q57 0 133 8v-82q-84 -6 -104 -18q-27 -15 -96 -104l-310 -405l66 -120 q172 -312 241 -420q92 -142 109.5 -154t93.5 -16v-84q-114 7 -217 7q-92 0 -180 -7q-38 62 -105 184l-199 364l-196 -282q-35 -53 -165 -266q-78 7 -116 7q-39 0 -127 -7z" />
<glyph unicode="Y" horiz-adv-x="1366" d="M4 1268v79q166 29 328 70q53 -25 88 -59q51 -51 141.5 -199.5t229.5 -428.5l82 140q112 190 295 527h163v-50q-53 -63 -197 -288q-226 -354 -252 -415q-16 -39 -16 -155q0 -235 10 -331q5 -51 26.5 -64t156.5 -17v-84q-146 7 -297 7q-166 0 -363 -7v84q103 0 143 18 q24 11 31 46q2 10 9 195l1 73q0 135 -13 169q-22 56 -154 265.5t-202 299t-118 117.5q-17 10 -44 10z" />
<glyph unicode="Z" horiz-adv-x="1366" d="M49 -7v79q333 420 848 1191l-248 3q-199 0 -307 -10q-47 -4 -59 -17t-25 -108l-11 -70h-81q0 70 4 168l2 64q0 41 -6 94l13 9q212 -11 379 -11q631 0 732 2v-71q-451 -603 -848 -1198q205 -7 380 -7q184 0 287 15q31 5 41 17q13 16 44 152l11 51h85q-24 -144 -34 -353 q-60 -5 -119 -5l-754 12q-80 0 -334 -7z" />
<glyph unicode="[" horiz-adv-x="682" d="M150 -431q24 264 24 945q0 673 -24 937l8 7q138 -6 234 -6q106 0 253 6v-92q-170 -9 -200 -26q-11 -6 -16 -19q-12 -30 -17 -271q-4 -223 -4 -536q0 -311 4.5 -548t16.5 -267q5 -13 17 -20q31 -17 199 -26v-91q-149 6 -249 6q-105 0 -238 -6z" />
<glyph unicode="\" horiz-adv-x="1241" d="M124 1451l115 -1q25 0 123 8q16 -58 32 -105q8 -21 55 -124l621 -1388q79 -175 131 -269l-126 2q-21 0 -113 -4q-14 53 -29 92q-9 25 -57 131l-622 1394q-72 159 -130 264z" />
<glyph unicode="]" horiz-adv-x="682" d="M37 -347q168 9 200 26q11 6 17 20q12 30 16 274q5 230 5 541q0 313 -5 545.5t-16 261.5q-6 13 -17 19q-30 17 -200 26v92q112 -4 280 -4q121 0 207 4l8 -7q-24 -265 -24 -937q0 -680 24 -945l-8 -7q-154 7 -239 7q-84 0 -248 -7v91z" />
<glyph unicode="^" horiz-adv-x="1241" d="M111 573l405 816h209l406 -816h-219l-291 565l-291 -565h-219z" />
<glyph unicode="_" d="M-12 -154h1048v-102h-1048v102z" />
<glyph unicode="`" horiz-adv-x="682" d="M98 1311q0 33 23.5 55.5t61.5 22.5q31 0 58.5 -16t110.5 -96l232 -224h-98l-247 131q-104 56 -122.5 76t-18.5 51z" />
<glyph unicode="a" d="M72 220q0 149 79 210q102 80 451 143q-2 118 -41 171q-55 73 -170 73q-27 0 -55.5 -6.5t-57.5 -20.5l-45 -107l-69 17l2 45l-1 44l-1 40q153 95 220 119q49 18 136 18q118 0 192 -35.5t108 -96.5t34 -178q0 -49 -4 -175q-4 -130 -4 -209q0 -125 7 -152q4 -16 19.5 -25 t106.5 -18v-83l-77 3q-61 3 -122 3q-94 0 -178 -6l-10 11l10 138l-209 -157q-56 -13 -99 -13q-106 0 -164 63t-58 184zM320 285q0 -61 34 -96t86 -35q79 0 162 89v244q-176 -38 -229 -82.5t-53 -119.5z" />
<glyph unicode="b" horiz-adv-x="1251" d="M49 1320v72q55 0 175 23.5t180 48.5l44 17q19 0 19 -24l-3 -105q-2 -54 -7 -567l121 101q57 48 102.5 64t109.5 16q168 0 269.5 -107t101.5 -280q0 -85 -28 -175.5t-69.5 -148t-107.5 -101.5q-83 -53 -141 -97q-69 -52 -116 -68t-115 -16q-67 0 -125 17t-131 62 q-24 -18 -88 -79l-48 19q19 242 19 669q0 193 -3 298l-6 257q0 59 -10 78q-7 13 -25 18q-13 4 -118 8zM457 222q37 -55 89 -83t118 -28q107 0 173 85.5t66 259.5q0 164 -67.5 247.5t-176.5 83.5q-58 0 -108.5 -26.5t-93.5 -79.5v-459z" />
<glyph unicode="c" horiz-adv-x="909" d="M53 436q0 82 16 148.5t43.5 113t60.5 75.5q20 16 172 111q89 56 129.5 69t108.5 13q60 0 117 -9t111 -27l17 -18q-36 -167 -41 -306h-83q-7 119 -17 137q-13 28 -58.5 51t-114.5 23q-106 0 -154.5 -60.5t-48.5 -217.5q0 -199 91 -307.5t234 -108.5q52 0 95.5 9t79.5 26 l17 -22q-22 -48 -41 -97q-66 -33 -134.5 -49.5t-138.5 -16.5q-218 0 -339.5 120.5t-121.5 342.5z" />
<glyph unicode="d" horiz-adv-x="1251" d="M102 425q0 100 22.5 181.5t53 122.5t122.5 105q125 87 182.5 109.5t125.5 22.5q49 0 100 -10.5t105 -32.5v173q0 161 -7 187q-5 19 -19.5 26.5t-135.5 10.5v72q239 26 401 96l26 -24q-10 -161 -12 -305l-7 -785q0 -197 7 -240q4 -27 19.5 -37.5t122.5 -19.5v-83 q-122 6 -238 6q-84 0 -157 -6l-17 12q12 101 17 163q-68 -51 -217 -175q-57 -21 -107 -21q-166 0 -276.5 123.5t-110.5 328.5zM360 522q0 -178 67.5 -266t172.5 -88q71 0 131.5 41t71 75t10.5 258v167q-47 67 -107 100t-133 33q-103 0 -158 -73.5t-55 -246.5z" />
<glyph unicode="e" d="M78 455q0 145 37 240q30 77 98.5 128t158 97t196.5 46q164 0 271 -91.5t107 -294.5q0 -25 -3 -76l-164 -30q-76 -5 -220 -5h-217q15 -172 103 -259t224 -87q57 0 113 16.5t111 48.5l29 -29l-45 -96q-72 -45 -154.5 -67.5t-175.5 -22.5q-218 0 -343.5 126.5t-125.5 355.5z M335 575q90 -8 180 -8q79 0 166 8l1 47q0 123 -45 179.5t-122 56.5q-54 0 -93 -26.5t-58 -74.5t-29 -182z" />
<glyph unicode="f" horiz-adv-x="797" d="M13 -6v83l62 5q61 3 76.5 19t19.5 83q8 140 8 335l-2 241q-99 -5 -164 -10v52l96 49l17 8l10 5l29 15v94q1 113 26.5 163.5t136.5 150.5q150 136 187 159q64 41 154 41q28 0 58 -5.5t62 -16.5q-17 -117 -28 -248l-39 -8q-44 42 -87 62.5t-85 20.5q-55 0 -83 -24.5 t-34.5 -82t-6.5 -306.5h102q83 0 170 16l12 -16q-16 -58 -26 -124q-59 5 -111 5h-147q0 -433 6 -565q3 -75 22 -91q24 -21 178 -27v-83q-147 6 -283 6t-336 -6z" />
<glyph unicode="g" horiz-adv-x="1139" d="M57 -257q0 72 35 120q16 22 110 76l72 41q-81 16 -108 42.5t-27 75.5q0 53 39 130l33 21q57 37 108 80q-115 41 -166 111t-51 176q0 153 118 251.5t331 98.5q105 0 185 -21q59 -16 118 -57h47q180 0 240 7l17 -21q-27 -38 -66 -110h-166q14 -49 14 -91 q0 -184 -131.5 -274t-307.5 -90q-28 0 -82 4q-46 -27 -58.5 -43t-12.5 -36q0 -48 67 -58q37 -6 406 -6q124 0 171.5 -21.5t78.5 -76.5t31 -142q0 -201 -159 -337t-430 -136q-230 0 -343 80.5t-113 205.5zM249 -229q0 -96 75 -155.5t221 -59.5q105 0 179 33t111 91t37 129 q0 65 -30 110q-22 31 -60.5 40t-222.5 9h-175q-84 -62 -109.5 -103t-25.5 -94zM360 680q0 -150 44.5 -211t127.5 -61q76 0 118 53.5t42 167.5q0 125 -43.5 182t-122.5 57q-76 0 -121 -49.5t-45 -138.5z" />
<glyph unicode="h" horiz-adv-x="1251" d="M47 -6v83q108 6 124 15q10 6 15 18q10 25 11 183l2 368q0 293 -6 534q-2 91 -18 106.5t-128 18.5v72q61 0 176 23t188 53q30 13 35 13q15 0 15 -19v-7q-3 -24 -3 -74l-7 -321q-1 -78 -1 -172v-98l132 112q42 35 63 43q53 21 124 21q157 0 232 -78q74 -78 74 -247l-5 -396 q0 -106 8 -131q5 -15 23.5 -24t112.5 -13v-83q-123 6 -219 6q-90 0 -185 -6l-13 17q20 194 20 381q0 256 -30 317q-40 77 -144 77q-62 0 -110 -29t-66.5 -68.5t-18.5 -148.5l4 -307q1 -104 10 -124q5 -10 16 -15q22 -11 130 -17v-83q-115 6 -241 6q-182 0 -320 -6z" />
<glyph unicode="i" horiz-adv-x="682" d="M63 -6v83q113 4 130.5 14t22.5 56q8 63 8 278q0 93 -3 172l-3 117q0 58 -12.5 71.5t-67.5 15.5l-75 3v77q241 18 397 85l25 -20q-14 -191 -14 -556q0 -211 7 -255q5 -31 18.5 -40t131.5 -18v-83q-181 6 -280 6q-53 0 -285 -6zM186 1288q0 65 45.5 110.5t110.5 45.5 q64 0 109.5 -45.5t45.5 -110.5q0 -64 -45.5 -109.5t-110.5 -45.5q-64 0 -109.5 45.5t-45.5 109.5z" />
<glyph unicode="j" horiz-adv-x="682" d="M-2 -460l11 10q40 -5 54 -5q44 0 79 39q47 52 61 184.5t14 518.5q0 179 -5 382q-2 91 -11 111q-6 11 -18.5 15t-129.5 9v77q195 21 320 56l97 29q13 0 13 -14l-1 -26q-14 -230 -15 -548q0 -325 -5 -391q-11 -167 -62 -282t-141 -179t-176 -64q-22 0 -61 5zM186 1288 q0 64 45.5 110t110.5 46q64 0 109.5 -45.5t45.5 -110.5q0 -64 -45.5 -109.5t-110.5 -45.5q-64 0 -109.5 45.5t-45.5 109.5z" />
<glyph unicode="k" horiz-adv-x="1251" d="M49 -6v83q107 4 125 14q9 6 14 18q8 22 11 200.5t3 371.5q0 156 -5 401q-4 178 -9.5 197.5t-21.5 29t-117 11.5v72q134 13 217.5 31.5t152.5 49.5q19 8 27 8q15 0 15 -27l-2 -43q-4 -74 -7 -563l-2 -280l2 -55q211 179 436 432q71 -5 127 -5q67 0 142 5v-82 q-111 -6 -134 -13.5t-68 -42.5t-251 -218l144 -163q248 -282 293 -319q29 -25 81 -30v-83q-112 6 -206 6q-73 0 -144 -6q-99 131 -198 243q-135 153 -222 236v-161q0 -140 12 -190q5 -22 20 -30.5t122 -14.5v-83q-193 6 -258 6q-63 0 -299 -6z" />
<glyph unicode="l" horiz-adv-x="682" d="M57 -6v83l74 4q50 2 64.5 18.5t17.5 125.5q5 151 5 429l-1 427q-1 195 -11 220q-4 12 -15 18q-18 11 -134 15v58q142 19 224 39t177 57l26 -22q-15 -357 -15 -997q0 -129 4 -261q2 -84 9.5 -97.5t24 -21.5t119.5 -12v-83l-105 3q-98 3 -165 3z" />
<glyph unicode="m" horiz-adv-x="1821" d="M61 -6v83q104 4 118.5 13.5t18.5 34.5q8 49 8 232q0 385 -10 417q-8 27 -70 28l-65 2v77q123 13 210 32.5t157 47.5q14 5 21 5q14 0 14 -25q0 -19 -3 -51q-2 -14 -2 -50v-36l164 123q52 39 158 39q107 0 170 -41.5t96 -132.5l170 135q49 39 137 39q157 0 231 -77t74 -250 l-2 -83q-4 -138 -4 -246q0 -143 9 -185q6 -23 20.5 -32.5t112.5 -15.5v-83q-125 6 -218 6q-90 0 -187 -6l-12 19q27 215 27 420q0 243 -37.5 303.5t-132.5 60.5q-62 0 -109 -31t-62 -71q-10 -28 -10 -175q0 -264 7 -365q3 -45 18.5 -57.5t127.5 -20.5v-83q-131 6 -257 6 q-157 0 -282 -6v83q99 0 116 28.5t17 250.5q0 253 -10 315t-48.5 94t-106.5 32q-50 0 -91 -23t-69 -65q-16 -23 -16 -71l1 -38q3 -28 3 -157l-1 -118q0 -170 6 -201q3 -20 16.5 -29t109.5 -18v-83q-120 6 -263 6q-50 0 -270 -6z" />
<glyph unicode="n" horiz-adv-x="1251" d="M57 -6v83q109 6 123 17.5t17 51.5q6 101 6 356q0 126 -3 217q-2 56 -8 66q-5 8 -16 12t-119 7v77q54 0 168.5 23t192.5 53l27 9q14 0 14 -23l-1 -9q-3 -28 -3 -144l155 130q29 25 60 34q44 12 107 12q106 0 173.5 -36.5t99 -101t31.5 -200.5q0 -60 -3 -139 q-5 -162 -5 -280q0 -67 11 -93q8 -18 22.5 -24t109.5 -15v-83l-123 4l-79 2l-206 -6l-11 13q26 190 26 390q0 254 -31 313q-40 76 -146 76q-68 0 -118 -34.5t-65 -73.5q-7 -16 -7 -101q0 -362 3 -414.5t17 -64.5q18 -15 134 -21v-83q-174 6 -294 6q-71 0 -259 -6z" />
<glyph unicode="o" horiz-adv-x="1139" d="M82 469q0 237 111 356q133 141 384 141q250 0 365 -113t115 -357q0 -251 -132.5 -387t-368.5 -136q-232 0 -353 127t-121 369zM359 538q0 -266 68 -379q53 -87 159 -87q93 0 143.5 74t50.5 269q0 268 -62 371q-51 82 -159 82q-93 0 -146.5 -75t-53.5 -255z" />
<glyph unicode="p" horiz-adv-x="1251" d="M53 -435q106 3 122 12q10 6 15 19q9 24 13 205q6 254 6 378l-2 397q-1 175 -11 200q-5 13 -15 19q-18 9 -128 9v77q176 16 291 50l107 35q14 0 14 -24q0 -20 -4 -56l-3 -94l162 128q51 41 170 41q169 0 271 -104.5t102 -281.5q0 -89 -25.5 -175t-60.5 -137t-123 -119 q-151 -121 -180 -138q-57 -33 -137 -33q-45 0 -90 11t-89 33l4 -305q4 -110 23 -128.5t148 -18.5v-82q-155 7 -270 7q-220 0 -310 -7v82zM458 213q45 -57 98 -86t115 -29q103 0 168.5 88t65.5 284q0 158 -67 239.5t-171 81.5q-52 0 -104.5 -25t-104.5 -75v-478z" />
<glyph unicode="q" horiz-adv-x="1251" d="M88 416q0 104 23.5 187t54 122.5t129 106.5t206.5 110q60 24 128 24q76 0 150.5 -21.5t148.5 -65.5q49 45 104 87l43 -21q-19 -104 -24 -184q-11 -183 -11 -536q0 -435 3 -540q2 -82 19 -98t136 -22v-82q-159 7 -278 7q-162 0 -306 -7v82q51 4 76 5q54 1 70 13 q11 7 17 25.5t9 208.5l4 343q-75 -54 -136 -106l-72 -61q-53 -20 -103 -20q-172 0 -281.5 118.5t-109.5 324.5zM346 510q0 -168 68.5 -255t171.5 -87q56 0 112 30t92 84v445q-45 58 -99 86.5t-118 28.5q-115 0 -171 -84t-56 -248z" />
<glyph unicode="r" horiz-adv-x="797" d="M21 -6v83q101 5 116 12q12 6 19 19q11 24 13 106q4 146 4 266q0 231 -6 274q-3 25 -18 35.5t-128 14.5v77q202 19 289 47l103 38q14 0 14 -19l-1 -14q-4 -63 -4 -181q51 49 113 124q46 56 80 73t91 17q32 0 65 -11q-9 -100 -12 -272l-45 -16q-23 39 -50.5 54.5 t-71.5 15.5q-60 0 -103 -31t-55 -71q-8 -30 -8 -204q0 -253 7 -295q4 -28 19 -38q23 -15 151 -21v-83l-112 3q-107 3 -185 3q-74 0 -172 -3z" />
<glyph unicode="s" horiz-adv-x="909" d="M80 45q12 87 15 274h85q5 -129 13 -144q22 -41 82.5 -72t140.5 -31q98 0 146.5 40t48.5 106q0 57 -35 90t-150 58q-174 38 -226.5 66.5t-83.5 84.5t-31 134q0 92 46 163t132.5 111.5t228.5 40.5q148 0 275 -48q-14 -81 -19 -252h-79q-6 108 -17 127q-15 29 -57 49 q-58 27 -124 27q-84 0 -130.5 -37.5t-46.5 -94.5q0 -53 42 -84q42 -32 200 -61q109 -20 151 -37q70 -30 106.5 -87.5t36.5 -145.5q0 -169 -131 -259t-312 -90q-60 0 -133 14t-159 41z" />
<glyph unicode="t" horiz-adv-x="682" d="M23 745v52l133 87q-2 177 -9 310q136 42 257 102l30 -23q-22 -145 -30 -389q46 -7 91 -7q102 0 183 13l9 -6l-9 -36q-15 -56 -22 -103q-117 9 -172 9q-41 0 -80 -5q-2 -101 -2 -178q0 -336 20 -382t95 -46q22 0 47.5 5t54.5 14l17 -38q-60 -67 -117 -139q-37 -6 -68 -9 t-57 -3q-84 0 -140.5 29t-82 75t-25.5 137q0 48 5 252q5 179 5 283l-51 2q-32 0 -82 -6z" />
<glyph unicode="u" horiz-adv-x="1251" d="M39 804v77q160 15 299 57l99 35q18 0 18 -23l-4 -59q-17 -230 -17 -444q0 -138 14 -183.5t50.5 -70.5t97.5 -25q71 0 124.5 39t66 86t12.5 268q0 177 -6 207q-4 16 -14 22q-15 8 -136 14v77q205 23 301 54l106 38q17 0 17 -21l-2 -27q-17 -174 -17 -631q0 -140 8 -176 q5 -17 16 -24q16 -9 126 -17v-83q-115 6 -228 6q-92 0 -171 -6l-9 18q5 50 9 157q-93 -75 -180 -165q-71 -31 -140 -31q-92 0 -160 37t-100.5 96.5t-32.5 167.5l2 109q3 101 3 164q0 178 -7 213q-5 23 -21 32.5t-124 11.5z" />
<glyph unicode="v" horiz-adv-x="1139" d="M4 863v82l257 -5q130 0 278 5v-82q-93 -3 -110.5 -11t-17.5 -27q0 -12 10 -47l60 -167l133 -346l131 307q91 213 91 251q0 21 -16.5 28.5t-115.5 11.5v82q131 -5 213 -5q89 0 191 5v-82q-80 -3 -100 -20.5t-115.5 -223t-270.5 -625.5h-176q-66 181 -198 513 q-87 217 -117 284q-20 43 -38 55t-89 17z" />
<glyph unicode="w" horiz-adv-x="1706" d="M8 863v82q124 -6 314 -6q138 0 247 6v-82l-65 -3q-52 -1 -65.5 -10t-13.5 -28q0 -11 35 -150l98 -361l200 441q69 152 94 219h106q68 -187 283 -660l89 267q67 203 67 239q0 23 -19 33q-14 7 -125 13v82q142 -5 221 -5q86 0 195 5v-82q-78 -3 -96 -13q-13 -8 -24 -28 q-29 -51 -135 -355q-76 -220 -152 -473h-164q-112 285 -273 629q-174 -355 -281 -629h-165q-43 182 -132 490.5t-104 337.5q-9 17 -21 24q-19 11 -114 17z" />
<glyph unicode="x" d="M27 -6v83q76 8 105 28q44 33 162 184l107 135q-151 229 -241 309q-46 41 -105 41l-28 -1v64q71 36 174 110q27 19 44 19q44 0 109 -49q43 -32 118 -144l96 -142q109 141 218 314q43 -5 83 -5q54 0 114 5v-82q-56 -6 -82 -19.5t-68 -61.5l-204 -240l107 -160 q131 -197 167 -229t95 -36v-63q-108 -38 -231 -93h-31q-48 31 -80 70q-41 53 -193 299q-147 -195 -232 -336q-78 6 -111 6q-38 0 -93 -6z" />
<glyph unicode="y" horiz-adv-x="1139" d="M4 863v82q230 -7 294 -7q89 0 251 7v-82q-93 -4 -110.5 -13.5t-17.5 -31.5q0 -30 98 -277l109 -276l93 218q125 293 125 338q0 21 -17.5 29.5t-107.5 12.5v82l63 -3q101 -4 134 -4q36 0 188 7v-82q-49 0 -80 -15q-13 -7 -23 -22q-16 -22 -126 -276l-186 -426l-173 -394 q-59 -121 -105.5 -169.5t-101.5 -72t-123 -23.5t-144 34q24 99 35 193l27 9q59 -66 137 -66q66 0 109 43t134 249l-223 566l-123 304q-16 37 -34.5 48.5t-101.5 17.5z" />
<glyph unicode="z" d="M37 -6v70q101 121 238 305q205 275 336 465h-183q-129 0 -163 -6q-24 -4 -33.5 -16.5t-20.5 -79.5l-10 -73h-85q9 117 9 219l-1 58l12 8q306 -7 375 -7q199 0 441 7v-70q-325 -421 -559 -765l180 -1q235 0 262 16.5t43 138.5l7 56h88q-17 -130 -21 -311l-10 -14 q-94 -3 -140 -3l-162 3q-248 6 -303 6z" />
<glyph unicode="{" horiz-adv-x="635" d="M44 506q156 41 156 190v529q0 140 91 191q73 42 300 42l-22 -7q-53 -17 -81 -42.5t-41 -57.5q-18 -47 -18 -96v-530q0 -66 -17 -107t-49.5 -67t-101.5 -45q93 -25 130.5 -76.5t37.5 -158.5v-508q0 -50 21 -99q15 -35 48 -61t93 -41q-175 2 -218 11q-91 20 -132 73.5 t-41 175.5v492q0 85 -33 124q-44 51 -123 68z" />
<glyph unicode="|" horiz-adv-x="1241" d="M520 -425v1883h201v-1883h-201z" />
<glyph unicode="}" horiz-adv-x="635" d="M44 -438l21 7q69 22 105 68t36 128v529q0 67 17 107.5t49.5 66.5t101.5 46q-94 25 -131 76.5t-37 157.5v509q0 50 -21 99q-16 35 -49 61t-92 41q174 -2 219 -12q91 -20 131.5 -73.5t40.5 -174.5v-493q0 -84 38.5 -129t117.5 -62q-156 -41 -156 -191v-528q0 -141 -83 -187 t-308 -46z" />
<glyph unicode="~" horiz-adv-x="1241" d="M76 533q7 161 80 242t180 81q55 0 111 -16q104 -30 272 -103q93 -40 145 -55q31 -9 67 -9q72 0 120 47.5t57 134.5h57q-6 -156 -81 -239.5t-188 -83.5q-53 0 -112.5 17t-262.5 102q-146 61 -211 61q-144 0 -176 -179h-58z" />
<glyph unicode="&#xa2;" d="M107 675q0 76 14 138t38.5 106.5t50.5 69.5t139 95.5t149 85.5q0 49 -7 162h111q-8 -83 -8 -145l24 1q111 0 215 -42l13 -17q-35 -163 -39 -291h-79q-7 108 -14 127.5t-36 40.5t-84 32v-661q35 -6 67 -6q97 0 166 39l19 -21q-21 -46 -39 -93q-60 -32 -104 -46t-109 -21 q0 -99 5 -199h-108q6 105 7 199q-183 13 -287 127.5t-104 318.5zM355 771q0 -125 39 -215t104 -137v618q-73 -13 -108 -70.5t-35 -195.5z" />
<glyph unicode="&#xa3;" d="M31 674q11 43 14 97q64 -5 167 -6q0 213 25 286.5t115.5 143.5t223.5 145q109 61 226 61q102 0 192 -44q-22 -143 -30 -290h-78q-5 116 -13 135t-44 36q-51 26 -112 26q-70 0 -121 -40.5t-73.5 -121t-39.5 -337.5l111 -1q132 0 214 7l22 -26q-10 -30 -22 -91 q-75 3 -174 3l-163 -2q-19 -118 -66 -219.5t-142 -217.5q109 6 166 6q99 0 313 -14q74 -5 99 -5q28 0 36.5 10t14.5 63l12 97h86q-13 -141 -13 -277l1 -79q-46 -42 -118 -42q-58 0 -128 12t-235 57q-176 48 -258 48l-58 -2q-58 -74 -98 -115h-46v163q55 45 125 78 q30 106 40 190t10 247l-160 -1z" />
<glyph unicode="&#xa5;" d="M-128 1268v76q31 6 199 46q54 13 95 25q64 -40 88 -68q44 -51 122 -195t202 -422l191 364l149 301h147v-45q-38 -49 -62 -89l-153 -265q-111 -190 -149 -266h306v-109h-354q-6 -61 -6 -100l1 -101h359v-109h-359q4 -156 13 -186q6 -20 21 -28q21 -10 137 -15v-89 q-119 7 -271 7q-186 0 -322 -7v83q110 5 135 22q18 13 23 52l5 161h-372v109h374q0 95 -6 128.5t-25 72.5h-343v109h286q-121 223 -206 356.5t-139 171.5q-18 12 -44 12z" />
<glyph unicode="&#xa8;" horiz-adv-x="682" d="M8 1178q0 50 35.5 85.5t85.5 35.5t85.5 -35.5t35.5 -85.5q0 -51 -35.5 -86.5t-85.5 -35.5t-85.5 35.5t-35.5 86.5zM432 1178q0 50 35.5 85.5t85.5 35.5t85 -35.5t35 -85.5q0 -51 -35.5 -86.5t-84.5 -35.5q-50 0 -85.5 35.5t-35.5 86.5z" />
<glyph unicode="&#xa9;" horiz-adv-x="1530" d="M50 693q0 192 95.5 358t261.5 262t358 96q191 0 357 -96t261.5 -262t95.5 -358t-95.5 -358t-261.5 -262t-357 -96q-192 0 -358 96t-261.5 262t-95.5 358zM163 695q0 -164 81 -305.5t220.5 -222.5t300.5 -81q160 0 300 81.5t221 222.5t81 304q0 164 -81 305t-220.5 222.5 t-300.5 81.5t-300.5 -81.5t-220.5 -222.5t-81 -304zM382 687q0 178 112 289t295 111q58 0 154.5 -20.5t124.5 -34.5v-209h-67q-4 52 -32 100t-70 71.5t-95 23.5q-106 0 -175 -80.5t-69 -224.5q0 -162 76.5 -254.5t187.5 -92.5q61 0 115.5 29.5t82.5 75.5l16 25l54 -21 q-18 -47 -64.5 -91t-116.5 -69.5t-149 -25.5q-111 0 -197 49.5t-134.5 141.5t-48.5 207z" />
<glyph unicode="&#xab;" d="M80 470v52q166 147 397 380l57 -43q-108 -182 -225 -368l225 -351l-57 -43q-206 208 -397 373zM492 470v53q173 153 395 380l58 -44q-98 -165 -224 -368l224 -351l-58 -43q-200 203 -395 373z" />
<glyph unicode="&#xad;" horiz-adv-x="682" d="M10 398q40 87 66 209q185 -7 302 -7q123 0 281 7l14 -20q-37 -91 -70 -208q-166 6 -297 6q-134 0 -282 -6z" />
<glyph unicode="&#xae;" horiz-adv-x="1530" d="M51 694q0 192 95.5 357.5t262 261.5t357.5 96t357 -96t261.5 -261.5t95.5 -357.5t-95 -357.5t-261.5 -261.5t-357.5 -96q-192 0 -358 96t-261.5 261.5t-95.5 357.5zM164 694q0 -162 80.5 -303t220.5 -222t301 -81t300.5 81t220.5 221.5t81 303.5q0 164 -80.5 304 t-220.5 221.5t-301 81.5t-301 -81.5t-220.5 -222t-80.5 -303.5zM434 330v41q66 0 78 9.5t12 55.5v548q0 50 -10.5 59t-77.5 11v44h339q162 0 225 -53t63 -138q0 -78 -60 -136q-44 -44 -145 -66q45 -10 78 -46t85 -145.5t72 -126.5t54 -16v-41h-128q-28 0 -54 14 q-17 9 -36 38.5t-55 114.5q-55 133 -79.5 157t-76.5 24h-51v-229q0 -45 6 -57t19 -17q9 -4 64 -4v-41h-322zM667 729q27 -3 41 -3q111 0 158 41.5t47 124.5q0 80 -42.5 119.5t-149.5 39.5q-35 0 -43 -8q-11 -12 -11 -44v-270z" />
<glyph unicode="&#xb4;" horiz-adv-x="682" d="M97 1053l232 224q82 79 110.5 95.5t59.5 16.5q38 0 61.5 -22.5t23.5 -56.5q0 -30 -19.5 -51t-122.5 -75l-246 -131h-99z" />
<glyph unicode="&#xb8;" horiz-adv-x="682" d="M92 -419l37 71q116 -43 185 -43q61 0 94 29.5t33 75.5q0 42 -29 69t-82 27q-29 0 -65 -13l-20 15l85 188h72l-53 -125q39 6 65 6q83 0 129.5 -42.5t46.5 -107.5q0 -81 -72 -140.5t-198 -59.5q-110 0 -228 50z" />
<glyph unicode="&#xbb;" d="M80 140l224 351q-117 187 -224 368l57 44q222 -226 396 -380v-53q-200 -174 -396 -373zM491 140l224 351l-224 368l57 43q222 -225 397 -380v-52q-198 -171 -397 -373z" />
<glyph unicode="&#x2c6;" horiz-adv-x="682" d="M18 1049l276 342h117l254 -342h-83l-232 199l-245 -199h-87z" />
<glyph unicode="&#x2da;" horiz-adv-x="682" d="M140 1250q0 84 58.5 142t142.5 58q82 0 140 -58.5t58 -141.5t-58.5 -141t-140.5 -58q-83 0 -141.5 58t-58.5 141zM218 1250q0 -50 35.5 -86t86.5 -36q50 0 86 36t36 86q0 51 -36 86.5t-86 35.5q-51 0 -86.5 -35.5t-35.5 -86.5z" />
<glyph unicode="&#x2dc;" horiz-adv-x="682" d="M-41 1100q66 233 240 233q39 0 81 -9.5t143 -47.5q79 -29 115 -29q43 0 68 18t51 76h66q-60 -231 -232 -231q-68 0 -184 46q-98 40 -147 40q-46 0 -75.5 -20.5t-52.5 -75.5h-73z" />
<glyph unicode="&#x401;" horiz-adv-x="1251" d="M79 1312v84q236 -9 373 -9l551 6q87 0 157 -7l7 -11q-22 -109 -32 -290h-79q-5 146 -11.5 156t-45.5 19q-83 18 -254 18q-84 0 -196 -7q-13 -309 -15 -492q107 -7 201 -7q139 0 167 9q17 6 24 29q6 18 14 126h86q-5 -169 -5 -220l5 -225h-86q-7 131 -18 151q-6 12 -27 17 q-50 11 -225 11q-55 0 -129 -6q-2 -53 -2 -108q0 -286 10 -440l198 -3q169 0 309 18q25 92 48 209h83q-23 -176 -27 -338q-91 -10 -175 -10q-55 0 -217 4q-151 4 -278 4q-167 0 -352 -7v54q53 24 97 56q20 156 20 656q0 341 -7 452q-3 59 -20.5 74.5t-148.5 26.5zM313 1619 q0 50 35.5 85.5t85.5 35.5t85.5 -35.5t35.5 -85.5q0 -51 -35.5 -86.5t-85.5 -35.5t-85.5 35.5t-35.5 86.5zM737 1619q0 50 35.5 85.5t85.5 35.5t85 -35.5t35 -85.5q0 -51 -35.5 -86.5t-84.5 -35.5q-50 0 -85.5 35.5t-35.5 86.5z" />
<glyph unicode="&#x402;" horiz-adv-x="1604" d="M33 1388l11 8q290 -14 600 -14q306 0 650 14l11 -16q-19 -134 -26 -321h-84q-6 174 -19.5 186.5t-149 17.5t-189.5 5q-19 0 -23 -22t-4 -456l172 127q44 32 83.5 38.5t104.5 6.5q159 0 253.5 -109.5t94.5 -337.5q0 -243 -122.5 -423.5t-342.5 -241.5q-48 28 -90 56v25 q298 45 298 515q0 202 -56.5 277.5t-173.5 75.5q-83 0 -139 -39t-70.5 -79.5t-14.5 -139.5q0 -356 7.5 -396.5t24 -48.5t154.5 -19v-84q-126 7 -323 7q-221 0 -340 -7v84q70 0 110 8.5t52 21.5t18 59.5t9 297t3 539.5q0 256 -2 261.5t-61 5.5q-95 0 -196 -5.5t-111.5 -15.5 t-21.5 -190h-86q0 221 -11 329z" />
<glyph unicode="&#x403;" horiz-adv-x="1139" d="M78 -7v84q61 0 102 5.5t49.5 16t12 30.5t9.5 163t6 325q0 318 -6.5 485.5t-23.5 184t-149 24.5v85q160 -8 305 -8q179 0 382 7q131 4 238 4q60 0 110 -3l10 -22q-22 -125 -26 -299h-84q-9 142 -14.5 160.5t-77 31.5t-177.5 13q-104 0 -192 -9q-17 -198 -17 -524 q0 -134 5.5 -368.5t15.5 -256t29 -30t163 -15.5v-84q-148 7 -300 7q-130 0 -370 -7zM446 1494l232 225q75 72 104.5 91.5t65.5 19.5q38 0 61.5 -22.5t23.5 -55.5q0 -35 -22 -54t-120 -72l-247 -132h-98z" />
<glyph unicode="&#x404;" horiz-adv-x="1477" d="M79 714q0 302 219 501.5t616 199.5q260 0 501 -93l7 -15q-32 -83 -45 -320h-84q-6 152 -11.5 172t-61.5 59t-138 59.5t-167 20.5q-248 0 -382 -141.5t-145 -361.5q118 -6 142 -6l349 6q9 0 117 -5l9 -75q12 -128 22 -157l-56 -5l-65 113q-102 20 -285 20q-115 0 -233 -6 q17 -245 170 -407t427 -162q212 0 405 99l25 -23q-26 -50 -46 -102q-204 -112 -471 -112q-387 0 -603 201.5t-216 539.5z" />
<glyph unicode="&#x405;" horiz-adv-x="1251" d="M110 76q18 70 24 127q8 79 9 213h88q1 -148 9.5 -173.5t57.5 -67t127 -67.5t160 -26q141 0 225.5 75t84.5 187q0 103 -56 158q-57 55 -216 78q-236 34 -318.5 74t-130 120t-47.5 192q0 188 132.5 318.5t423.5 130.5q114 0 202.5 -17t177.5 -56l10 -24q-16 -63 -22.5 -114 t-11.5 -176h-87q-5 154 -15 173q-19 33 -96.5 69.5t-177.5 36.5q-137 0 -212.5 -66.5t-75.5 -171.5q0 -64 31 -111.5t86.5 -70t238.5 -51.5q166 -25 225 -49q97 -39 147 -119t50 -202q0 -212 -162 -352.5t-443 -140.5q-125 0 -227 24t-211 79z" />
<glyph unicode="&#x406;" horiz-adv-x="797" d="M72 -7v84q138 7 156 23t22 79q7 132 7 492q0 138 -4 400q-2 179 -8 196.5t-21 25.5q-22 11 -152 19v84q206 -8 315 -8q188 0 340 8v-84q-136 -8 -153.5 -21.5t-22.5 -62.5q-9 -96 -9 -389q0 -390 3 -543.5t18 -182.5q6 -13 25.5 -20.5t138.5 -15.5v-84l-118 3 q-112 4 -200 4z" />
<glyph unicode="&#x407;" horiz-adv-x="797" d="M66 1619q0 50 35.5 85.5t85.5 35.5t85.5 -35.5t35.5 -85.5q0 -51 -35.5 -86.5t-85.5 -35.5t-85.5 35.5t-35.5 86.5zM72 -7v84q138 7 156 23t22 79q7 132 7 492q0 138 -4 400q-2 179 -8 196.5t-21 25.5q-22 11 -152 19v84q206 -8 315 -8q188 0 340 8v-84 q-136 -8 -153.5 -21.5t-22.5 -62.5q-9 -96 -9 -389q0 -390 3 -543.5t18 -182.5q6 -13 25.5 -20.5t138.5 -15.5v-84l-118 3q-112 4 -200 4zM490 1619q0 50 35.5 85.5t85.5 35.5t85 -35.5t35 -85.5q0 -51 -35.5 -86.5t-84.5 -35.5q-50 0 -85.5 35.5t-35.5 86.5z" />
<glyph unicode="&#x408;" horiz-adv-x="797" d="M-9 -242l24 11q63 -70 143 -70q40 0 61 22.5t27 126.5q10 161 10 403l-2 772q0 198 -9 236q-6 24 -23.5 33.5t-168.5 19.5v84q200 -8 322 -8q177 0 358 8v-84q-32 0 -115 -9q-34 -4 -45.5 -13t-15.5 -25q-9 -30 -10 -220l-2 -406l-3 -306q-2 -248 -8 -297 q-16 -123 -86.5 -227t-197.5 -186q-96 -61 -186 -61q-30 0 -73 13q5 69 5 93q0 25 -5 90z" />
<glyph unicode="&#x409;" horiz-adv-x="2083" d="M14 -13q5 34 5 64q0 54 -5 129l27 13q80 -89 154 -89q98 0 143.5 116t62.5 446.5t17 509.5q0 95 -20.5 111.5t-160.5 24.5v84q185 -8 344 -8h554q139 0 365 8v-84q-137 -9 -154.5 -23t-24.5 -85t-7 -386q33 0 82 2q50 2 75 2q279 0 403 -108.5t124 -272.5 q0 -134 -71.5 -233.5t-179 -156.5t-323.5 -57q-43 0 -130 3q-78 3 -113 3q-88 0 -252 -7v47q60 36 87 62q10 103 10 279l5 489l-10 402l-126 7q-17 1 -44 1h-140l-53 -3q-83 -2 -111 -4q-4 -47 -10 -227q-11 -349 -26 -534.5t-61.5 -305t-129 -176.5t-193.5 -57 q-50 0 -113 14zM1312 425l2 -262v-56q51 -15 101 -15q276 0 276 325q0 99 -34 166.5t-90.5 97.5t-159.5 30l-93 -1v-26z" />
<glyph unicode="&#x40a;" horiz-adv-x="2126" d="M70 -7v84q131 6 148.5 17.5t25.5 57t8 267.5q0 601 -2.5 726t-19.5 141.5t-160 25.5v84q194 -8 318 -8q183 0 337 8v-84q-139 -6 -161.5 -28.5t-22.5 -415.5v-83q82 -5 266 -5q190 0 264 5q0 453 -14.5 488t-168.5 39v84q1 0 58 -2q186 -5 275 -5q164 0 322 7v-84 q-130 -12 -146 -17.5t-24.5 -22t-10.5 -150.5l-5 -304q33 0 83 2q49 2 75 2q187 0 295.5 -46t169.5 -132t61 -203q0 -133 -70.5 -232.5t-178 -157t-322.5 -57.5q-33 0 -80 1q-194 6 -202 6q-22 0 -216 -8v47q62 37 87 62q12 106 12 556q-58 8 -154 8q-200 0 -376 -4v-72 q0 -253 6 -364t25 -125.5t153 -23.5v-84q-3 0 -59 2q-168 5 -249 5q-54 0 -347 -7zM1354 563q0 -391 7 -456q51 -15 100 -15q273 0 273 325q0 99 -33.5 166.5t-90 97.5t-160.5 30l-93 -1q-3 -67 -3 -147z" />
<glyph unicode="&#x40b;" horiz-adv-x="1620" d="M33 1388l11 8q290 -14 600 -14q306 0 650 14l11 -16q-19 -134 -26 -321h-84q-6 174 -19.5 186.5t-149 17.5t-189.5 5q-16 0 -19.5 -6.5t-6 -158t-2.5 -214.5q0 -37 3 -99l130 112q41 35 78 49.5t110 14.5q161 0 236 -78t75 -248l-4 -290q0 -214 11 -243t135 -30v-84 q-114 7 -225 7t-194 -7l-13 18q20 195 20 389q0 249 -35.5 317.5t-139.5 68.5q-69 0 -114 -34t-60 -73.5t-15 -155.5q0 -319 7.5 -372.5t28.5 -58t150 -15.5v-84q-126 7 -323 7q-221 0 -340 -7v84q107 0 135 12.5t38 40t14.5 257t4.5 617.5q0 255 -2 260.5t-61 5.5 q-95 0 -196 -5.5t-111.5 -15.5t-21.5 -190h-86q0 221 -11 329z" />
<glyph unicode="&#x40c;" horiz-adv-x="1593" d="M72 -7v84q122 9 137 16q11 5 16 13q10 14 16 60q11 79 12 292l1 377q0 180 -5.5 301t-15.5 141q-6 13 -20 20q-21 10 -141 15v84q180 -7 321 -7q169 0 320 7v-84q-126 -9 -145.5 -22t-23.5 -63q-5 -63 -6 -504h14q101 81 291 271.5t294 317.5l1 37l-1 37l9 10 q109 -7 186 -7q81 0 182 7v-84l-57 -6q-68 -7 -88 -15q-40 -18 -107 -74q-100 -83 -253 -228l-178 -168l92 -113q163 -200 389 -454q130 -146 156 -161q18 -10 95 -16v-84l-53 2l-178 5q-72 0 -186 -7q-81 104 -274 333q-144 172 -275 312q-17 18 -24 21q-6 2 -12 2 q-15 0 -21 -12q-3 -8 -3 -80l4 -303q2 -133 11 -153q6 -14 20 -20q20 -9 141 -16v-84q-148 7 -328 7q-91 0 -313 -7zM649 1494l232 224q82 79 110.5 95.5t59.5 16.5q38 0 61.5 -22.5t23.5 -56.5q0 -30 -19.5 -51t-122.5 -75l-246 -131h-99z" />
<glyph unicode="&#x40e;" horiz-adv-x="1536" d="M13 1312v84q185 -8 351 -8q143 0 304 8v-84q-109 -7 -135 -17t-26 -35q0 -34 84 -236l291 -690l218 558q125 319 125 369q0 25 -23 35t-144 16v84q178 -7 250 -7q66 0 227 7v-84q-89 0 -122.5 -27.5t-181.5 -396.5l-305 -757q-120 -311 -180 -408.5t-134.5 -141 t-171.5 -43.5q-80 0 -150 34q25 99 35 193l27 8q55 -67 145 -67q69 0 120.5 54t107.5 213q-29 81 -145 349q-57 130 -149 353q-105 254 -188 431.5t-107 187.5t-123 18zM457 1672v31q106 46 219 148q171 -118 499 -148l5 -24q-88 -41 -138 -70q-290 4 -585 63z" />
<glyph unicode="&#x40f;" horiz-adv-x="1706" d="M70 -7v84q126 8 145 16.5t27 29.5t9 213.5t1 630.5q0 297 -20.5 318.5t-161.5 26.5v84q19 0 128 -4q121 -3 219 -3q83 0 308 7v-84q-133 -9 -151.5 -23t-25.5 -101t-7 -603q0 -165 5 -332q3 -91 3 -137l134 -5q18 -2 36 -2h271l170 7l7 350q0 506 -5.5 654.5t-24 167 t-154.5 24.5v84q210 -7 354 -7q151 3 301 7v-84q-121 -9 -138 -15t-26 -18.5t-12 -45t-6.5 -322.5t-3.5 -325q0 -463 25.5 -484t160.5 -25v-84q-192 7 -330 7q-151 0 -235 -9t-150 -64q-21 -152 -21 -265v-40h-101v40q0 110 -21 265q-63 53 -146 63t-235 10q-138 0 -329 -7z " />
<glyph unicode="&#x410;" horiz-adv-x="1593" d="M63 -7v91q94 5 116 19q15 10 47 76q61 130 156 361l354 867h147l452 -1074q88 -209 108.5 -229t126.5 -27v-84q-163 7 -308 7q-173 0 -329 -7v84q119 5 137.5 13.5t18.5 30.5q0 19 -42 130l-66 171q-124 2 -277 2q-133 0 -242 -2l-44 -115q-18 -47 -44 -140 q-6 -21 -6 -38q0 -23 19.5 -32.5t140.5 -19.5v-84q-98 7 -244 7q-139 0 -221 -7zM508 540q92 -5 203 -5q116 0 222 5l-214 513z" />
<glyph unicode="&#x411;" horiz-adv-x="1358" d="M69 1312v84q156 -8 309 -8q187 0 386 7q130 4 238 4q60 0 110 -3l10 -22q-22 -129 -26 -299h-84q-10 142 -15 160.5t-77 31.5t-178 13q-103 0 -192 -9q-14 -184 -14 -453l195 3q246 0 382 -104t136 -276q0 -136 -75.5 -234.5t-187 -155.5t-334.5 -57q-45 0 -133 3 q-79 3 -114 3q-88 0 -252 -7v47q60 36 87 62q12 105 12 649q0 506 -25.5 531.5t-157.5 29.5zM533 422q0 -22 3 -315q55 -15 109 -15q296 0 296 325q0 98 -36.5 167.5t-100 98t-168.5 28.5l-100 -1z" />
<glyph unicode="&#x412;" horiz-adv-x="1366" d="M70 1312v84l192 -4l147 -3q67 0 198 5q127 5 182 5q222 0 318 -74.5t96 -203.5q0 -133 -95 -217t-268 -120v-8q178 -18 250 -54t116 -112t44 -173q0 -119 -72.5 -225t-192 -162t-336.5 -56q-43 0 -129 3q-80 3 -131 3q-57 0 -235 -7v47q57 34 87 62q12 138 12 610 q0 342 -10 484q-5 77 -21 90q-22 20 -152 26zM536 908l1 -90h52q169 0 237.5 61t68.5 191q0 114 -55.5 168t-182.5 54q-47 0 -115 -8q-6 -307 -6 -376zM537 425l2 -262v-56q58 -15 109 -15q142 0 218 81.5t76 239.5q0 103 -34.5 168.5t-95 97.5t-172.5 32l-101 -1v-26z" />
<glyph unicode="&#x413;" horiz-adv-x="1139" d="M74 -7v84q61 0 102 5.5t49.5 16t12 30.5t9.5 163t6 325q0 318 -6.5 485.5t-23.5 184t-149 24.5v85q160 -8 305 -8q179 0 382 7q131 4 238 4q60 0 110 -3l10 -22q-22 -125 -26 -299h-84q-9 142 -14.5 160.5t-77 31.5t-177.5 13q-104 0 -192 -9q-17 -198 -17 -524 q0 -134 5.5 -368.5t15.5 -256t29 -30t163 -15.5v-84q-148 7 -300 7q-130 0 -370 -7z" />
<glyph unicode="&#x414;" horiz-adv-x="1538" d="M-17 -378q21 203 38 456q121 18 190.5 157.5t101 454.5t31.5 512q0 61 -13.5 82.5t-164.5 27.5v84q185 -8 343 -8h590q138 0 365 8v-84q-135 -5 -161 -25t-26 -477q0 -15 3 -231l4 -326q1 -110 9.5 -130.5t20 -25.5t32 -9t186.5 -10q-41 -185 -51 -456h-99v40 q0 109 -21 265q-57 47 -126 60t-351 13h-279q-272 0 -439 -48l-88 -330h-95zM254 123q111 -3 167 -6q103 -6 195 -6h246q47 0 122 8q7 62 7 125l-1 134l7 514q0 192 -9 383q-61 5 -94 5h-327q-26 0 -47 -3l-45 -4q-10 -68 -18 -251q-32 -698 -203 -899z" />
<glyph unicode="&#x415;" horiz-adv-x="1251" d="M79 1312v84q236 -9 373 -9l551 6q87 0 157 -7l7 -11q-22 -109 -32 -290h-79q-5 146 -11.5 156t-45.5 19q-83 18 -254 18q-84 0 -196 -7q-13 -309 -15 -492q107 -7 201 -7q139 0 167 9q17 6 24 29q6 18 14 126h86q-5 -169 -5 -220l5 -225h-86q-7 131 -18 151q-6 12 -27 17 q-50 11 -225 11q-55 0 -129 -6q-2 -53 -2 -108q0 -286 10 -440l198 -3q169 0 309 18q25 92 48 209h83q-23 -176 -27 -338q-91 -10 -175 -10q-55 0 -217 4q-151 4 -278 4q-167 0 -352 -7v54q53 24 97 56q20 156 20 656q0 341 -7 452q-3 59 -20.5 74.5t-148.5 26.5z" />
<glyph unicode="&#x416;" horiz-adv-x="2243" d="M27 -7v84q57 0 79.5 9t65.5 50.5t168.5 198.5t264.5 345l101 136l-228 243q-122 134 -181.5 180.5t-95 57.5t-130.5 16v83l36 -2q101 -5 143 -5q74 0 185 7l11 -7v-76q318 -413 524 -588h15q-1 338 -7.5 444.5t-24.5 122t-151 21.5v83q180 -7 310 -7q172 0 323 7v-83 q-138 -6 -156 -29t-18 -277q0 -200 -3 -282h15q205 175 524 588v76l10 7q113 -7 186 -7q43 0 179 7v-83q-109 -7 -150 -24.5t-105 -75t-211 -219.5l-169 -178l101 -136q181 -246 312 -404t167 -178.5t99 -20.5v-84q-111 8 -222 8q-86 0 -187 -8l-383 534q-100 135 -141 135 q-25 0 -25 -41v-74q0 -413 14.5 -440t162.5 -30v-84q-148 7 -315 7q-104 0 -318 -7v84q113 7 139.5 15.5t35 113.5t8.5 219v196q0 41 -25 41q-28 0 -99.5 -83.5t-298.5 -408.5l-127 -177q-104 8 -186 8q-114 0 -222 -8z" />
<glyph unicode="&#x417;" horiz-adv-x="1251" d="M62 185l21 20q151 -121 381 -121q377 0 377 309q0 307 -348 307q-81 0 -172 -8v124q65 -8 161 -8q168 0 238 60t70 197q0 135 -66 188.5t-188 53.5q-140 0 -212.5 -51.5t-82.5 -224.5h-82q-7 208 -34 295q220 89 461 89q273 0 390.5 -72.5t117.5 -227.5q0 -264 -359 -340 v-9q203 -21 305 -99.5t102 -232.5q0 -225 -168.5 -343t-438.5 -118q-281 0 -452 110q-8 54 -21 102z" />
<glyph unicode="&#x418;" horiz-adv-x="1722" d="M66 1312v84q213 -8 285 -8q213 0 370 8v-84q-142 -5 -163.5 -29t-21.5 -444q0 -78 9 -519l127 198q306 477 524 871l88 -1q214 0 373 8v-84q-141 -5 -163.5 -28.5t-22.5 -454.5q0 -471 5.5 -590t22.5 -135.5t158 -26.5v-84q-3 0 -59 2q-168 5 -249 5q-54 0 -347 -7v84 q140 4 162 25.5t22 319.5l5 559q0 47 -5 176l-130 -219q-286 -486 -393.5 -643t-238.5 -302q-132 -20 -170 -29l-17 15q14 156 14 797q0 475 -14.5 502.5t-170.5 33.5z" />
<glyph unicode="&#x419;" horiz-adv-x="1722" d="M66 1312v84q213 -8 285 -8q213 0 370 8v-84q-142 -5 -163.5 -29t-21.5 -444q0 -78 9 -519l127 198q306 477 524 871l88 -1q214 0 373 8v-84q-141 -5 -163.5 -28.5t-22.5 -454.5q0 -471 5.5 -590t22.5 -135.5t158 -26.5v-84q-3 0 -59 2q-168 5 -249 5q-54 0 -347 -7v84 q140 4 162 25.5t22 319.5l5 559q0 47 -5 176l-130 -219q-286 -486 -393.5 -643t-238.5 -302q-132 -20 -170 -29l-17 15q14 156 14 797q0 475 -14.5 502.5t-170.5 33.5zM564 1672v31q107 46 219 148q172 -118 500 -148l5 -24q-90 -41 -139 -70q-290 4 -585 63z" />
<glyph unicode="&#x41a;" horiz-adv-x="1593" d="M72 -7v84q122 9 137 16q11 5 16 13q10 14 16 60q11 79 12 292l1 377q0 180 -5.5 301t-15.5 141q-6 13 -20 20q-21 10 -141 15v84q180 -7 321 -7q169 0 320 7v-84q-126 -9 -145.5 -22t-23.5 -63q-5 -63 -6 -504h14q101 81 291 271.5t294 317.5l1 37l-1 37l9 10 q109 -7 186 -7q81 0 182 7v-84l-57 -6q-68 -7 -88 -15q-40 -18 -107 -74q-100 -83 -253 -228l-178 -168l92 -113q163 -200 389 -454q130 -146 156 -161q18 -10 95 -16v-84l-53 2l-178 5q-72 0 -186 -7q-81 104 -274 333q-144 172 -275 312q-17 18 -24 21q-6 2 -12 2 q-15 0 -21 -12q-3 -8 -3 -80l4 -303q2 -133 11 -153q6 -14 20 -20q20 -9 141 -16v-84q-148 7 -328 7q-91 0 -313 -7z" />
<glyph unicode="&#x41b;" horiz-adv-x="1569" d="M14 -13q5 34 5 64q0 54 -5 129l27 13q80 -89 154 -89q98 0 143.5 116t62.5 446.5t17 509.5q0 95 -20.5 111.5t-160.5 24.5v84q185 -8 344 -8h554q139 0 365 8v-84q-121 -7 -140.5 -15t-27 -25.5t-13 -203t-5.5 -262.5q0 -16 2 -237l4 -319q1 -98 7.5 -120t15.5 -29.5 t28.5 -12t128.5 -11.5v-84q-24 0 -110 3q-125 4 -191 4q-154 0 -354 -7v84q137 6 155 24t23.5 165.5t5.5 656.5l-8 349l-126 7q-17 1 -44 1h-140l-53 -3q-83 -2 -111 -4q-4 -47 -10 -227q-11 -349 -26 -534.5t-61.5 -305t-129 -176.5t-193.5 -57q-50 0 -113 14z" />
<glyph unicode="&#x41c;" horiz-adv-x="2048" d="M63 -8v84l60 4q73 4 91.5 25t21.5 142q7 247 7 535q0 153 -2 348q-2 118 -14 144q-6 13 -22 21t-142 17v84q121 -3 237 -3q135 0 260 3q54 -127 112 -252q41 -89 363 -755q340 684 476 1007q120 -5 228 -5q127 0 245 5v-84q-131 -8 -148 -23t-22 -92q-8 -126 -8 -479 q0 -178 4 -376t14 -224q7 -15 20 -23t140 -19v-84q-162 8 -289 8q-128 0 -348 -8v84l59 2q70 3 87.5 19.5t22.5 87t5 332.5v604q-154 -309 -393 -810q-98 -206 -153 -336h-68q-75 172 -201 435l-346 711v-136q0 -564 6 -777q3 -86 23 -106t149 -26v-84q-102 8 -204 8 q-152 0 -271 -8z" />
<glyph unicode="&#x41d;" horiz-adv-x="1706" d="M70 -7v84q131 6 148.5 17.5t23.5 47.5q10 55 10 277l-1 547q-1 277 -10 302q-5 15 -17 23q-20 13 -154 21v84q200 -7 317 -7q185 0 338 7v-84q-123 -8 -145 -18q-13 -6 -19 -18q-10 -19 -14 -116q-6 -144 -6 -292v-83q104 -5 330 -5q201 0 296 5q1 325 -7 432 q-4 57 -21 70q-23 19 -156 25v84q249 -7 337 -7q151 0 319 7v-84q-128 -8 -149 -19q-12 -6 -18 -18q-9 -21 -13 -163q-7 -218 -7 -353l6 -454q2 -154 9 -177t23 -32.5t149 -18.5v-84l-111 3q-125 4 -196 4q-148 0 -349 -7v84q134 6 152.5 21.5t22.5 81.5q7 113 9 482 q-112 4 -249 4q-215 0 -377 -4v-66q0 -262 7 -393q5 -88 24 -102.5t153 -23.5v-84l-118 3q-112 4 -200 4z" />
<glyph unicode="&#x41e;" horiz-adv-x="1706" d="M80 684q0 232 95 394.5t263.5 249.5t433.5 87q255 0 417 -83.5t249.5 -232t87.5 -364.5q0 -234 -96 -404.5t-270.5 -264t-418.5 -93.5q-369 0 -565 189.5t-196 521.5zM387 724q0 -214 65 -362.5t165.5 -214t261.5 -65.5q201 0 320.5 148.5t119.5 451.5q0 318 -137 488 q-111 137 -342 137q-216 0 -334.5 -143t-118.5 -440z" />
<glyph unicode="&#x41f;" horiz-adv-x="1706" d="M70 -7v84q131 6 148.5 17.5t25.5 57t8 267.5q0 601 -2.5 726t-19.5 141.5t-160 25.5v84q234 -9 365 -9h839q129 0 364 9v-84q-134 -5 -160 -25t-26 -474q0 -16 3 -236l3 -322q1 -103 7.5 -124.5t15.5 -29t28 -12.5t129 -12v-84q-24 0 -110 3q-125 4 -191 4 q-153 0 -354 -7v84q137 6 155 24t23.5 165.5t5.5 655.5l-7 350l-127 7q-17 1 -43 1h-271l-170 -8q0 -45 -3 -137q-5 -171 -5 -287q0 -493 5 -610t22.5 -134t156.5 -27v-84q-3 0 -59 2q-168 5 -249 5q-54 0 -347 -7z" />
<glyph unicode="&#x420;" horiz-adv-x="1251" d="M78 -7v84q119 9 135 19q12 6 18 21q10 25 14.5 207t4.5 353q0 319 -6.5 456t-21 153t-86.5 21l-58 5v84l113 -4q105 -3 167 -3q85 0 274 6q102 4 150 4q179 0 264.5 -34t130 -103t44.5 -172q0 -186 -131.5 -311.5t-334.5 -125.5q-26 0 -55 4t-62 11q-17 36 -36 70l23 25 q22 -5 40.5 -8t33.5 -3q101 0 165 69.5t64 194.5q0 139 -66 207.5t-194 68.5q-52 0 -122 -14q-11 -308 -11 -522q0 -72 8 -459q3 -153 10 -176q5 -17 19 -24q22 -11 170 -20v-84q-177 7 -298 7q-54 0 -366 -7z" />
<glyph unicode="&#x421;" horiz-adv-x="1479" d="M80 707q0 311 220.5 509.5t608.5 198.5q129 0 255.5 -23t251.5 -70l7 -15q-18 -54 -25 -104q-13 -87 -20 -216h-84q-6 158 -12 173.5t-55 53t-132.5 61t-184.5 23.5q-240 0 -381.5 -148t-141.5 -412q0 -286 170 -463q157 -164 431 -164q106 0 198.5 22t204.5 77l25 -23 q-26 -50 -46 -102q-116 -61 -223.5 -86.5t-247.5 -25.5q-262 0 -443 92t-278.5 259t-97.5 383z" />
<glyph unicode="&#x422;" horiz-adv-x="1366" d="M33 1388l11 8q315 -14 613 -14q297 0 665 14l11 -16q-19 -137 -27 -321h-83q-9 167 -18 181q-7 11 -32 15q-80 13 -318 13q-20 0 -24 -6q-4 -7 -4 -53l-6 -672q0 -292 5 -358.5t24 -80.5q13 -9 157 -21v-84q-147 7 -312 7q-217 0 -352 -7v84q57 0 119 10q29 5 41 16.5 t18 42.5q7 43 12 316q3 194 3 396q0 397 -2.5 404.5t-70.5 7.5q-139 0 -239 -8q-58 -5 -65.5 -10t-11.5 -17.5t-17 -175.5h-86q2 191 -11 329z" />
<glyph unicode="&#x423;" horiz-adv-x="1536" d="M13 1312v84q185 -8 351 -8q143 0 304 8v-84q-109 -7 -135 -17t-26 -35q0 -34 84 -236l291 -690l218 558q125 319 125 369q0 25 -23 35t-144 16v84q178 -7 250 -7q66 0 227 7v-84q-89 0 -122.5 -27.5t-181.5 -396.5l-305 -757q-120 -311 -180 -408.5t-134.5 -141 t-171.5 -43.5q-80 0 -150 34q25 99 35 193l27 8q55 -67 145 -67q69 0 120.5 54t107.5 213q-29 81 -145 349q-57 130 -149 353q-105 254 -188 431.5t-107 187.5t-123 18z" />
<glyph unicode="&#x424;" horiz-adv-x="1886" d="M66 698q0 244 177.5 358.5t554.5 115.5q-3 83 -9.5 100t-30 25t-143.5 15v84q188 -7 336 -7q132 0 321 7v-84q-120 -7 -143.5 -15t-30 -24.5t-9.5 -100.5q377 -2 554.5 -116t177.5 -358q0 -257 -194.5 -366.5t-537.5 -109.5q6 -114 29.5 -127t153.5 -18v-84q-18 0 -128 3 q-127 4 -199 4q-165 -4 -330 -7v84q130 5 153.5 18t29.5 127q-344 0 -538 109.5t-194 366.5zM374 704q0 -188 100 -283.5t324 -99.5l2 354q0 66 -2 406q-226 -9 -325 -98.5t-99 -278.5zM1087 675q0 -86 2 -354q424 4 424 383q0 214 -121 295.5t-303 81.5z" />
<glyph unicode="&#x425;" horiz-adv-x="1366" d="M31 -7v84q90 6 110.5 18t94.5 107l337 449q-158 277 -252.5 425t-141.5 179q-25 17 -61 17q-22 0 -65 -7l-9 82l374 75q61 -44 98.5 -93t140.5 -239l106 -195l245 356q63 91 94 145q55 -8 101 -8q57 0 133 8v-82q-84 -6 -104 -18q-27 -15 -96 -104l-310 -405l66 -120 q172 -312 241 -420q92 -142 109.5 -154t93.5 -16v-84q-114 7 -217 7q-92 0 -180 -7q-38 62 -105 184l-199 364l-196 -282q-35 -53 -165 -266q-78 7 -116 7q-39 0 -127 -7z" />
<glyph unicode="&#x426;" horiz-adv-x="1710" d="M69 -7v84q126 8 145 16.5t27 29.5t9 214t1 630q0 297 -20.5 318.5t-161.5 26.5v84q19 0 128 -4q121 -3 219 -3q83 0 308 7v-84q-133 -9 -151.5 -23t-25.5 -101t-7 -603q0 -165 5 -332q3 -91 3 -137q127 -7 170 -7h271q54 0 170 7l7 350q0 506 -5.5 654.5t-24 167 t-154.5 24.5v84q210 -7 354 -7q151 3 302 7v-84q-155 0 -171 -42.5t-16 -683.5q0 -465 28 -487t224 -22q-41 -186 -50 -455h-100v40q0 108 -21 265q-56 47 -125 60t-352 13h-621q-180 0 -365 -7z" />
<glyph unicode="&#x427;" horiz-adv-x="1624" d="M13 1312v84q189 -8 309 -8q185 0 340 8v-84q-142 0 -163.5 -33.5t-21.5 -319.5q0 -356 286 -356q183 0 321 125q0 507 -14 543.5t-170 40.5v84q2 0 58 -2q186 -5 275 -5q165 0 323 7v-84q-135 -5 -161 -25t-26 -474q0 -16 3 -236l3 -323q1 -102 7.5 -123.5t15.5 -29 t28.5 -12.5t129.5 -12v-84q-25 0 -111 3q-125 4 -191 4q-153 0 -354 -7v84q134 6 153 22t25 152t6 357q-252 -172 -456 -172q-185 0 -314.5 102t-129.5 325l2 251q0 150 -16 170.5t-157 27.5z" />
<glyph unicode="&#x428;" horiz-adv-x="2425" d="M69 -7v84q136 6 155 21.5t24.5 112.5t5.5 509q0 536 -15 561t-170 31v84q213 -8 285 -8q213 0 370 8v-84q-134 -8 -153 -22t-26 -111.5t-7 -508.5q0 -394 14 -553q79 -8 166 -8h159q85 0 182 12q13 73 13 603q0 533 -15.5 557.5t-169.5 30.5v84q189 -7 331 -7 q132 0 320 7v-84q-154 -6 -169 -31t-15 -540q0 -551 12 -620q93 -12 183 -12h159q92 0 166 8q14 159 14 556q0 442 -7.5 523.5t-27 94.5t-152.5 21v84q175 -8 365 -8q87 0 290 8v-84q-154 -6 -169 -31.5t-15 -541.5q0 -416 5 -519t23 -119.5t156 -23.5v-84l-57 -1 q-54 0 -142 5q-57 3 -148 3h-1593q-71 0 -148 -3q-118 -5 -142 -5q-21 0 -57 1z" />
<glyph unicode="&#x429;" horiz-adv-x="2425" d="M69 -7v84q136 7 155 22t24.5 112t5.5 509q0 536 -15 561t-170 31v84q213 -8 285 -8q213 0 370 8v-84q-134 -8 -153 -22t-26 -111.5t-7 -508.5q0 -394 14 -553q79 -8 166 -8h159q85 0 182 12q13 73 13 603q0 533 -15.5 557.5t-169.5 30.5v84q189 -7 331 -7q132 0 320 7 v-84q-154 -6 -169 -31t-15 -540q0 -551 12 -620q93 -12 183 -12h159q92 0 166 8q14 159 14 556q0 442 -7.5 523.5t-27 94.5t-152.5 21v84q175 -8 365 -8q87 0 290 8v-84q-155 0 -169.5 -37t-14.5 -685q0 -463 21.5 -488t227.5 -25q-41 -186 -50 -455h-100v40q0 108 -20 265 q-57 47 -126 60t-352 13h-1357q-71 0 -148 -3q-118 -5 -142 -5q-21 0 -57 1z" />
<glyph unicode="&#x42a;" horiz-adv-x="1530" d="M33 1388l11 8q318 -14 486 -14q106 0 390 14v-84q-138 -9 -156 -23t-25 -85.5t-7 -385.5q35 0 86 2t78 2q197 0 310 -46.5t176 -133t63 -201.5q0 -131 -72.5 -230.5t-185 -158t-337.5 -58.5q-34 0 -81 1q-202 6 -209 6l-296 -8v84q137 7 155.5 23.5t23.5 127t5 517.5 q0 376 -16 525q-266 -5 -278.5 -19.5t-23.5 -191.5h-86q0 221 -11 329zM731 163l1 -56q55 -15 109 -15q297 0 297 325q0 98 -37 167.5t-100.5 98t-168.5 28.5l-100 -1l-1 -26l1 -259z" />
<glyph unicode="&#x42b;" horiz-adv-x="2060" d="M70 1312v84q194 -8 318 -8q183 0 337 8v-84q-137 -9 -155 -23t-24.5 -85.5t-6.5 -385.5q34 0 86 2q51 2 78 2q289 0 418 -108.5t129 -272.5q0 -132 -73 -232t-186 -157.5t-339 -57.5q-44 0 -132 3q-79 3 -114 3q-88 0 -252 -7v47q60 36 87 62q12 105 12 649 q0 506 -25.5 531.5t-157.5 29.5zM537 359q0 -186 3 -252q52 -15 107 -15q295 0 295 325q0 98 -36 167.5t-99.5 98t-168.5 28.5l-99 -1q-2 -66 -2 -351zM1337 -7v84q138 7 156 23t22 79q7 132 7 492q0 138 -4 400q-2 179 -8 196.5t-21 25.5q-22 11 -152 19v84q206 -8 315 -8 q188 0 340 8v-84q-136 -8 -153.5 -21.5t-22.5 -62.5q-9 -96 -9 -389q0 -390 3 -543.5t18 -182.5q6 -13 25.5 -20.5t138.5 -15.5v-84l-118 3q-112 4 -200 4z" />
<glyph unicode="&#x42c;" horiz-adv-x="1333" d="M69 1312v84q194 -8 318 -8q183 0 337 8v-84q-137 -9 -155 -23t-24.5 -85.5t-6.5 -385.5q34 0 86 2q51 2 78 2q289 0 418 -108.5t129 -272.5q0 -132 -73 -232t-186 -157.5t-339 -57.5q-44 0 -132 3q-79 3 -114 3q-88 0 -252 -7v47q60 36 87 62q12 105 12 649 q0 506 -25.5 531.5t-157.5 29.5zM536 359q0 -186 3 -252q52 -15 107 -15q295 0 295 325q0 98 -36 167.5t-99.5 98t-168.5 28.5l-99 -1q-2 -66 -2 -351z" />
<glyph unicode="&#x42d;" horiz-adv-x="1477" d="M55 1307q32 -83 45 -320h84q6 152 11.5 172t61.5 59t138 59.5t167 20.5q248 0 382 -141.5t145 -361.5q-118 -6 -142 -6l-349 6q-9 0 -117 -5l-9 -75q-12 -128 -22 -157l56 -5l65 113q102 20 285 20q115 0 233 -6q-17 -245 -170 -407t-427 -162q-212 0 -405 99l-25 -23 q26 -50 46 -102q204 -112 471 -112q387 0 603 201.5t216 539.5q0 302 -219 501.5t-616 199.5q-260 0 -501 -93z" />
<glyph unicode="&#x42e;" horiz-adv-x="2484" d="M69 -7v84q131 6 148.5 17.5t25.5 57t8 267.5q0 601 -2.5 726t-19.5 141.5t-160 25.5v84q194 -8 318 -8q183 0 337 8v-84q-139 -6 -161.5 -28.5t-22.5 -416.5v-82q125 -6 174 -6q53 0 149 6q26 277 223 453.5t573 176.5q350 0 548 -181t198 -501q0 -344 -211 -552 t-565 -208q-374 0 -569.5 184.5t-200.5 504.5q-58 2 -59 2q-159 0 -260 -2v-72q0 -253 6 -364t25 -125.5t153 -23.5v-84q-3 0 -59 2q-168 5 -249 5q-54 0 -347 -7zM1165 725q0 -284 118.5 -463.5t357.5 -179.5q233 0 344.5 159.5t111.5 441.5q0 191 -53 335.5t-153.5 216.5 t-272.5 72q-229 0 -341 -152t-112 -430z" />
<glyph unicode="&#x42f;" horiz-adv-x="1479" d="M27 0l59 -1q254 -2 327 -6q87 139 260 403l206 313q-9 17 -15 36q-40 -5 -59 -5q-93 0 -183 75t-90 214q0 121 71 188t213 67q45 0 122 -7l7 -295l9 -374q0 -127 -10 -325q-8 -149 -16 -167q-6 -13 -22 -21q-21 -12 -136 -18v-84q180 7 319 7q148 0 318 -7v84 q-116 10 -133 19q-11 6 -16 19q-10 24 -14 162q-5 214 -5 337q0 166 4 422q4 191 19 234q4 13 16 20q16 10 129 22v84q-207 -8 -267 -8l-501 9q-163 0 -237.5 -31.5t-118 -101t-43.5 -163.5q0 -120 69.5 -210.5t241.5 -160.5l-213 -321l-166 -246q-47 -60 -70 -72.5 t-75 -13.5v-77z" />
<glyph unicode="&#x430;" d="M72 220q0 149 79 210q102 80 451 143q-2 118 -41 171q-55 73 -170 73q-27 0 -55.5 -6.5t-57.5 -20.5l-45 -107l-69 17l2 45l-1 44l-1 40q153 95 220 119q49 18 136 18q118 0 192 -35.5t108 -96.5t34 -178q0 -49 -4 -175q-4 -130 -4 -209q0 -125 7 -152q4 -16 19.5 -25 t106.5 -18v-83l-77 3q-61 3 -122 3q-94 0 -178 -6l-10 11l10 138l-209 -157q-56 -13 -99 -13q-106 0 -164 63t-58 184zM320 285q0 -61 34 -96t86 -35q79 0 162 89v244q-176 -38 -229 -82.5t-53 -119.5z" />
<glyph unicode="&#x431;" horiz-adv-x="1173" d="M108 652q0 261 41.5 422.5t131 233.5t257.5 72q64 0 130 -8q109 -14 152 -14q85 0 144 79l71 -25q-40 -258 -292 -258q-47 0 -135 9q-53 5 -99 5q-292 0 -305 -441q124 239 428 239q460 0 460 -464q0 -269 -137.5 -399t-370.5 -130q-147 0 -258.5 59.5t-164.5 190.5 t-53 429zM391 533q0 -262 60.5 -361.5t166.5 -99.5q95 0 145 76t50 265q0 240 -49.5 347.5t-173.5 107.5q-199 0 -199 -335z" />
<glyph unicode="&#x432;" horiz-adv-x="1145" d="M62 863v83q180 -6 244 -6l375 7q164 0 251.5 -53.5t87.5 -151.5q0 -169 -308 -230q221 -18 284 -80t63 -151q0 -115 -120 -201t-378 -86q-48 0 -98 2q-120 4 -128 4q-55 0 -225 -7v47q60 36 87 62q12 138 12 231q0 481 -13 504t-134 26zM459 365q0 -207 6 -270 q60 -8 96 -8q101 0 165 46.5t64 138.5q0 94 -67 140t-173 46q-35 0 -91 -9v-84zM459 546q49 -3 79 -3q211 0 211 165q0 145 -184 145q-51 0 -100 -13q-6 -154 -6 -218v-76z" />
<glyph unicode="&#x433;" horiz-adv-x="930" d="M63 -7v84q111 4 129 13t25 57t7 338q0 260 -7 308t-24.5 57.5t-129.5 12.5v81q252 -4 267 -4l360 4q109 0 223 6l14 -6q-10 -114 -10 -282h-77l-4 68q-1 101 -22.5 107.5t-76.5 7.5q-12 1 -62 3q-103 4 -162 4q-27 0 -33 -7.5t-6 -38.5q0 -19 -1 -40q-5 -144 -5 -308 l4 -282q0 -46 18.5 -69t162.5 -30v-84q-186 7 -303 7q-56 0 -287 -7z" />
<glyph unicode="&#x434;" horiz-adv-x="1204" d="M-14 -266q37 225 51 338q88 14 142.5 74.5t83.5 207.5t29 406q0 73 -21.5 86t-135.5 17v83q230 -6 287 -6h445q102 0 273 6v-83q-120 0 -133 -29t-13 -325q0 -370 11 -401t134 -31q14 0 36 1l4 -18q-25 -151 -28 -326h-97l1 24q0 155 -11 180.5t-76.5 43.5t-314.5 18 h-204q-155 0 -203.5 -8t-65 -20.5t-45 -69t-55.5 -168.5h-94zM206 94h446q52 0 68.5 15t18.5 118.5t2 258.5t-8 353q-55 6 -118 6h-114q-68 -3 -101 -3q-4 -33 -6 -84q-12 -337 -48.5 -462t-139.5 -202z" />
<glyph unicode="&#x435;" d="M78 455q0 145 37 240q30 77 98.5 128t158 97t196.5 46q164 0 271 -91.5t107 -294.5q0 -25 -3 -76l-164 -30q-76 -5 -220 -5h-217q15 -172 103 -259t224 -87q57 0 113 16.5t111 48.5l29 -29l-45 -96q-72 -45 -154.5 -67.5t-175.5 -22.5q-218 0 -343.5 126.5t-125.5 355.5z M335 575q90 -8 180 -8q79 0 166 8l1 47q0 123 -45 179.5t-122 56.5q-54 0 -93 -26.5t-58 -74.5t-29 -182z" />
<glyph unicode="&#x436;" horiz-adv-x="1759" d="M13 -7v84q50 5 85 35.5t275 313.5l138 163l-190 172q-86 77 -110.5 86.5t-134.5 15.5v82q72 -5 131 -5q71 0 115 5q41 -67 205 -230t230 -211v115q0 187 -9.5 213.5t-137.5 30.5v82l58 -1q113 -4 221 -4q97 0 261 5v-82q-128 -4 -137.5 -30t-9.5 -214v-115 q149 109 435 441q44 -5 115 -5q63 0 131 5v-82q-105 -5 -127 -12.5t-65.5 -43t-242.5 -218.5l138 -163q240 -283 275 -313.5t85 -35.5v-84q-99 7 -173 7q-92 0 -152 -7q-254 393 -419 496v-128q0 -233 12 -255t135 -29v-84l-58 2q-115 5 -206 5q-113 0 -276 -7v84 q131 4 139 33t8 251v128q-191 -146 -419 -496q-50 8 -123 8q-108 0 -202 -8z" />
<glyph unicode="&#x437;" horiz-adv-x="938" d="M65 144l17 22q159 -92 288 -92q97 0 163 45t66 140q0 194 -254 194h-74v84h38q265 0 265 171q0 172 -178 172q-87 0 -137 -43.5t-62 -180.5h-77q-14 221 -20 257q160 53 326 53q198 0 302.5 -61t104.5 -157q0 -75 -59 -136t-251 -115q124 0 238 -52.5t114 -180.5 q0 -139 -124 -215t-346 -76q-169 0 -295 66q-19 50 -45 105z" />
<glyph unicode="&#x438;" horiz-adv-x="1354" d="M59 863v82l61 -1q111 -4 212 -4q119 0 280 5v-82q-138 -4 -145 -32t-7 -172v-405q377 514 468 691l129 -5l236 5v-82q-115 -3 -130.5 -22t-15.5 -331q0 -387 14 -408t132 -25v-84q-3 0 -61 2q-116 5 -212 5q-110 0 -280 -7v84q125 7 138.5 27.5t13.5 222.5l-2 403 q-318 -480 -532 -737q-75 -3 -159 -16l-12 11q18 217 18 375q0 452 -12.5 474.5t-133.5 25.5z" />
<glyph unicode="&#x439;" horiz-adv-x="1354" d="M59 863v82l61 -1q111 -4 212 -4q119 0 280 5v-82q-138 -4 -145 -32t-7 -172v-405q377 514 468 691l129 -5l236 5v-82q-115 -3 -130.5 -22t-15.5 -331q0 -387 14 -408t132 -25v-84q-3 0 -61 2q-116 5 -212 5q-110 0 -280 -7v84q125 7 138.5 27.5t13.5 222.5l-2 403 q-318 -480 -532 -737q-75 -3 -159 -16l-12 11q18 217 18 375q0 452 -12.5 474.5t-133.5 25.5zM421 1158v24q77 37 175 117q130 -83 399 -117l4 -18l-47 -25q-29 -15 -62 -30q-217 7 -469 49z" />
<glyph unicode="&#x43a;" horiz-adv-x="1249" d="M64 -7v84q116 4 131 23.5t15 346.5q0 371 -14 392t-132 24v83q1 0 61 -2q110 -4 212 -4q122 0 280 6v-83q-127 -6 -139.5 -27t-12.5 -217v-109q217 184 438 436q62 -6 133 -6q68 0 136 6v-83q-108 -6 -130 -12t-66.5 -40t-256.5 -222l144 -163q248 -282 285 -313t89 -36 v-84q-100 7 -204 7q-82 0 -146 -7q-200 268 -422 483v-115q0 -216 6 -248t146 -36v-84q-1 0 -61 2q-119 5 -219 5q-99 0 -273 -7z" />
<glyph unicode="&#x43b;" horiz-adv-x="1278" d="M14 1q14 107 15 203l39 13q46 -65 108 -65q115 0 146 153t31 475q0 55 -23 67t-134 16v83q230 -6 287 -6h460q102 0 273 6v-83q-115 -3 -130.5 -22t-15.5 -331q0 -387 13.5 -408t132.5 -25v-84q-4 0 -62 2q-115 5 -211 5q-110 0 -280 -7v84q130 7 142 32.5t12 376.5 q0 190 -7 307l-2 48q-72 4 -117 4h-127q-21 0 -104 -5q-4 -45 -8 -193q-4 -167 -17 -273t-61 -203t-113.5 -143t-143.5 -46q-51 0 -103 19z" />
<glyph unicode="&#x43c;" horiz-adv-x="1507" d="M59 -7v84q116 4 131 23.5t15 346.5q0 371 -14 392t-132 24v83q6 0 61 -2q107 -4 140 -4l242 6q46 -122 263 -588q153 317 267 588q83 -6 173 -6q53 0 238 6v-83q-110 -6 -124 -18.5t-17.5 -112t-3.5 -222.5q0 -387 13.5 -408t131.5 -25v-84q-3 0 -61 2q-116 5 -212 5 q-109 0 -280 -7v84q125 5 138.5 25.5t13.5 96.5l2 286v277q-1 -8 -162 -357q-178 -390 -185 -419h-45l-354 776v-277q0 -347 10 -375.5t144 -32.5v-84q-7 0 -61 2q-107 5 -138 5z" />
<glyph unicode="&#x43d;" horiz-adv-x="1343" d="M62 -7v84q116 4 131 23.5t15 346.5q0 371 -14 392t-132 24v83q3 0 61 -2q113 -4 212 -4q115 0 280 6v-83q-138 -4 -145 -32t-7 -172v-109q105 -6 207 -6q125 0 211 6v109q0 147 -8.5 173.5t-143.5 30.5v83q165 -6 280 -6q103 0 273 6v-83q-114 -3 -129.5 -22t-15.5 -331 q0 -387 13.5 -408t131.5 -25v-84q-3 0 -61 2q-116 5 -212 5q-109 0 -280 -7v84q136 5 144 33t8 217v122q-79 7 -212 7q-129 0 -206 -7v-122q0 -189 8 -217.5t144 -32.5v-84q-1 0 -61 2q-119 5 -219 5q-99 0 -273 -7z" />
<glyph unicode="&#x43e;" horiz-adv-x="1139" d="M82 469q0 237 111 356q133 141 384 141q250 0 365 -113t115 -357q0 -251 -132.5 -387t-368.5 -136q-232 0 -353 127t-121 369zM359 538q0 -266 68 -379q53 -87 159 -87q93 0 143.5 74t50.5 269q0 268 -62 371q-51 82 -159 82q-93 0 -146.5 -75t-53.5 -255z" />
<glyph unicode="&#x43f;" horiz-adv-x="1343" d="M62 -7v84q116 4 131 23.5t15 346.5q0 371 -14 392t-132 24v83q170 -6 273 -6h674q103 0 273 6v-83q-114 -3 -129.5 -22t-15.5 -331q0 -387 13.5 -408t131.5 -25v-84q-3 0 -61 2q-116 5 -212 5q-109 0 -280 -7v84q135 4 145 33t10 375q0 191 -6 288l-3 70l-50 1l-67 -1 h-172l-67 1q-17 0 -50 -1q0 -23 -3 -70q-5 -97 -5 -288q0 -347 10 -375.5t144 -32.5v-84q-1 0 -61 2q-119 5 -219 5q-99 0 -273 -7z" />
<glyph unicode="&#x440;" horiz-adv-x="1251" d="M53 -435q106 3 122 12q10 6 15 19q9 24 13 205q6 254 6 378l-2 397q-1 175 -11 200q-5 13 -15 19q-18 9 -128 9v77q176 16 291 50l107 35q14 0 14 -24q0 -20 -4 -56l-3 -94l162 128q51 41 170 41q169 0 271 -104.5t102 -281.5q0 -89 -25.5 -175t-60.5 -137t-123 -119 q-151 -121 -180 -138q-57 -33 -137 -33q-45 0 -90 11t-89 33l4 -305q4 -110 23 -128.5t148 -18.5v-82q-155 7 -270 7q-220 0 -310 -7v82zM458 213q45 -57 98 -86t115 -29q103 0 168.5 88t65.5 284q0 158 -67 239.5t-171 81.5q-52 0 -104.5 -25t-104.5 -75v-478z" />
<glyph unicode="&#x441;" horiz-adv-x="909" d="M75 436q0 82 16 148.5t43.5 113t60.5 75.5q20 16 172 111q89 56 129.5 69t108.5 13q60 0 117 -9t111 -27l17 -18q-36 -167 -41 -306h-83q-7 119 -17 137q-13 28 -58.5 51t-114.5 23q-106 0 -154.5 -60.5t-48.5 -217.5q0 -199 91 -307.5t234 -108.5q52 0 95.5 9t79.5 26 l17 -22q-22 -48 -41 -97q-66 -33 -134.5 -49.5t-138.5 -16.5q-218 0 -339.5 120.5t-121.5 342.5z" />
<glyph unicode="&#x442;" horiz-adv-x="1030" d="M3 939l14 7q206 -10 498 -10q296 0 498 10l15 -7q-10 -116 -10 -265h-70q-10 142 -17.5 152.5t-87.5 15t-177 4.5q-17 0 -21 -7t-4 -41l-3 -362q0 -227 6 -280.5t23.5 -64t130.5 -14.5v-84q-232 7 -283 7q-53 0 -283 -7v84q113 0 132.5 15.5t24 97.5t4.5 215 q0 261 -3 357v36q0 34 -4 41t-21 7q-92 0 -174.5 -4t-90.5 -15.5t-17 -152.5h-70q0 149 -10 265z" />
<glyph unicode="&#x443;" horiz-adv-x="1139" d="M4 863v82q230 -7 294 -7q89 0 251 7v-82q-93 -4 -110.5 -13.5t-17.5 -31.5q0 -30 98 -277l109 -276l93 218q125 293 125 338q0 21 -17.5 29.5t-107.5 12.5v82l63 -3q101 -4 134 -4q36 0 188 7v-82q-49 0 -80 -15q-13 -7 -23 -22q-16 -22 -126 -276l-186 -426l-173 -394 q-59 -121 -105.5 -169.5t-101.5 -72t-123 -23.5t-144 34q24 99 35 193l27 9q59 -66 137 -66q66 0 109 43t134 249l-223 566l-123 304q-16 37 -34.5 48.5t-101.5 17.5z" />
<glyph unicode="&#x444;" horiz-adv-x="1714" d="M66 359q0 264 190.5 433t326.5 169q75 0 151 -62v174q0 144 -7 175.5t-23.5 38.5t-134.5 10v72q227 23 399 94l27 -24q-7 -75 -15 -514v-129l147 124q47 41 149 41q164 0 267.5 -101.5t103.5 -284.5q0 -231 -162 -416.5t-332 -185.5q-91 0 -173 60v-187q0 -227 19.5 -250 t152.5 -23v-82q-1 0 -59 3q-126 5 -189 5q-272 0 -324 -8v82q108 3 124.5 14t23 98.5t6.5 246.5v206l-146 -124q-47 -41 -159 -41q-178 0 -270.5 113t-92.5 273zM312 464q0 -156 72 -238.5t175 -82.5q84 0 175 100v478q-77 94 -178 94q-114 0 -179 -98.5t-65 -252.5z M980 213q77 -119 178 -119q104 0 173.5 96t69.5 272q0 155 -66 242t-167 87q-93 0 -188 -100v-478z" />
<glyph unicode="&#x445;" d="M27 -6v83q76 8 105 28q44 33 162 184l107 135q-151 229 -241 309q-46 41 -105 41l-28 -1v64q71 36 174 110q27 19 44 19q44 0 109 -49q43 -32 118 -144l96 -142q109 141 218 314q43 -5 83 -5q54 0 114 5v-82q-56 -6 -82 -19.5t-68 -61.5l-204 -240l107 -160 q131 -197 167 -229t95 -36v-63q-108 -38 -231 -93h-31q-48 31 -80 70q-41 53 -193 299q-147 -195 -232 -336q-78 6 -111 6q-38 0 -93 -6z" />
<glyph unicode="&#x446;" horiz-adv-x="1343" d="M62 -7v85q109 5 124 17.5t18.5 111t3.5 222.5q0 388 -13.5 409.5t-132.5 24.5v83q3 0 61 -2q113 -4 212 -4q115 0 280 6v-83q-134 -4 -144 -32t-10 -376q0 -192 5 -289q3 -46 3 -70h406l3 71q6 97 6 289q0 348 -10.5 375.5t-144.5 31.5v83q165 -6 280 -6q103 0 273 6v-83 q-119 0 -132 -28.5t-13 -342.5q0 -356 12 -385.5t133 -29.5q14 0 36 1l4 -18q-25 -153 -28 -326h-97q2 21 2 24q0 155 -11.5 180.5t-77 43.5t-314.5 18h-461q-99 0 -273 -7z" />
<glyph unicode="&#x447;" horiz-adv-x="1274" d="M10 863v83q3 0 61 -2q113 -4 212 -4q115 0 280 6v-83q-123 -5 -137.5 -23t-14.5 -98v-83q0 -192 174 -192q74 0 126 30t73 75t21 159q0 95 -18.5 112t-137.5 20v83q117 -6 291 -6q27 0 269 6v-83q-112 -3 -129 -12.5t-24.5 -57.5t-7.5 -308q0 -290 7.5 -337.5t25 -57 t128.5 -13.5v-84q-231 7 -287 7q-123 0 -303 -7v84q126 8 153.5 23.5t27.5 75.5l4 289l-133 -87q-122 -80 -241 -80q-106 0 -166.5 32t-86 90.5t-25.5 190.5v131q0 93 -18.5 105t-123.5 16z" />
<glyph unicode="&#x448;" horiz-adv-x="1917" d="M61 -7v84q110 6 124.5 18.5t18 110.5t3.5 223q0 388 -13.5 409.5t-132.5 24.5v83q3 0 61 -2q114 -4 212 -4q99 0 266 6v-83q-130 -7 -142 -32t-12 -376q0 -192 6 -289l3 -70h377l3 71q5 97 5 289q0 347 -10 375t-144 32v83q167 -6 270 -6q110 0 276 6v-83 q-135 -4 -144.5 -32.5t-9.5 -375.5q0 -192 5 -289l3 -70h377l3 71q6 97 6 289q0 348 -10.5 375.5t-143.5 31.5v83l60 -2q117 -4 206 -4q102 0 273 6v-83q-116 -3 -131 -22.5t-15 -346.5q0 -372 14 -392.5t132 -24.5v-84q-174 7 -273 7h-1250q-99 0 -273 -7z" />
<glyph unicode="&#x449;" horiz-adv-x="1917" d="M61 -7v85q109 5 124 17.5t18.5 111t3.5 222.5q0 388 -13.5 409.5t-132.5 24.5v83q3 0 61 -2q114 -4 212 -4q99 0 266 6v-83q-130 -7 -142 -32t-12 -376q0 -192 6 -289l3 -70h377l3 71q5 97 5 289q0 347 -10 375t-144 32v83q167 -6 270 -6q110 0 276 6v-83 q-135 -4 -144.5 -32.5t-9.5 -375.5q0 -192 5 -289l3 -70h377l3 71q6 97 6 289q0 348 -10.5 375.5t-143.5 31.5v83l60 -2q117 -4 206 -4q102 0 273 6v-83q-118 0 -131 -26.5t-13 -321.5q0 -379 12.5 -408.5t133.5 -29.5q13 0 36 1l4 -18q-26 -153 -29 -326h-96l1 24 q0 155 -11 180.5t-76.5 43.5t-315.5 18h-1038q-99 0 -273 -7z" />
<glyph unicode="&#x44a;" horiz-adv-x="1266" d="M36 946l14 8q306 -14 441 -14q107 0 286 6v-83q-131 -6 -144.5 -28.5t-13.5 -186.5v-101h118q482 0 482 -260q0 -78 -58.5 -149.5t-170.5 -107t-344 -35.5q-3 0 -107 6q-103 5 -104 5l-214 -13v84q120 3 133 25.5t13 469.5q0 198 -15 273q-69 7 -111 7q-76 0 -95.5 -13 t-20.5 -136q0 -21 -2 -37h-77q0 172 -10 280zM620 278q0 -129 6 -183q60 -8 93 -8q95 0 161.5 47t66.5 136q0 84 -61 136t-178 52q-37 0 -85 -9q-3 -61 -3 -171z" />
<glyph unicode="&#x44b;" horiz-adv-x="1722" d="M61 863v83q3 0 61 -2q113 -4 212 -4q103 0 285 6v-83q-125 -8 -141 -27t-16 -188v-101h118q482 0 482 -260q0 -93 -73.5 -165t-184 -99.5t-307.5 -27.5l-199 6l-189 -8v47q60 36 87 62q12 138 12 231q0 481 -13 504t-134 26zM463 313q0 -144 7 -218q59 -8 92 -8 q95 0 161.5 47.5t66.5 135.5q0 83 -61 135.5t-178 52.5q-37 0 -85 -9q-3 -72 -3 -136zM1113 -7v84q116 4 131 23.5t15 347.5q0 371 -14 391.5t-132 23.5v83q3 0 62 -2q113 -4 211 -4q105 0 275 6v-83q-110 -6 -124.5 -18.5t-18 -112t-3.5 -222.5q0 -387 14 -408t132 -25v-84 q-4 0 -61 2q-116 5 -214 5t-273 -7z" />
<glyph unicode="&#x44c;" horiz-adv-x="1114" d="M66 863v83q3 0 61 -2q113 -4 212 -4q103 0 285 6v-83q-125 -8 -141 -27t-16 -188v-101h118q482 0 482 -260q0 -93 -73.5 -165t-184 -99.5t-307.5 -27.5l-199 6l-189 -8v47q60 36 87 62q12 138 12 231q0 481 -13 504t-134 26zM468 313q0 -144 7 -218q59 -8 92 -8 q95 0 161.5 47.5t66.5 135.5q0 84 -62 136t-177 52q-37 0 -85 -9q-3 -72 -3 -136z" />
<glyph unicode="&#x44d;" horiz-adv-x="971" d="M69 144l17 22q159 -92 293 -92q112 0 175.5 64.5t64.5 312.5q-19 0 -90 3q-57 2 -93 2q-41 0 -75 -5q-44 -28 -92 -77l-46 44l104 132q78 2 121 2q8 0 171 -2q-22 202 -83.5 265t-157.5 63q-77 0 -128 -41.5t-64 -180.5h-76q-14 221 -20 257q155 53 340 53 q221 0 343.5 -106.5t122.5 -357.5q0 -268 -137.5 -398.5t-372.5 -130.5q-146 0 -272 66q-19 50 -45 105z" />
<glyph unicode="&#x44e;" horiz-adv-x="1747" d="M62 -7v84q116 4 131 23.5t15 346.5q0 371 -14 392t-132 24v83q3 0 61 -2q113 -4 212 -4q115 0 280 6v-83q-138 -4 -145 -32t-7 -172v-113q13 0 90 -2q57 -2 58 -2q11 0 80 4q39 428 499 428q236 0 355.5 -110t119.5 -354q0 -272 -138.5 -400.5t-360.5 -128.5 q-234 0 -348 118.5t-127 350.5q-53 3 -99 3q-48 0 -129 -3v-123q0 -189 8 -217.5t144 -32.5v-84q-1 0 -61 2q-119 5 -219 5q-99 0 -273 -7zM967 545q0 -266 60.5 -366t166.5 -100q95 0 145 76.5t50 265.5q0 239 -49.5 347t-173.5 108q-199 0 -199 -331z" />
<glyph unicode="&#x44f;" horiz-adv-x="1192" d="M-4 -7v84q45 1 76.5 22.5t75.5 78.5l232 297q-252 24 -252 214q0 123 103 191.5t262 68.5q16 0 201 -7q33 -2 159 -2q103 0 273 6v-83q-114 -3 -129.5 -22t-15.5 -331q0 -387 13.5 -408t131.5 -25v-84q-3 0 -61 2q-116 5 -212 5q-109 0 -280 -7v84q129 7 141.5 30.5 t12.5 311.5h-97l-325 -426q-1 0 -40 2q-73 5 -103 5zM398 679q0 -82 52.5 -125.5t138.5 -43.5h138q-1 221 -8 338q-66 7 -87 7q-140 0 -187 -49.5t-47 -126.5z" />
<glyph unicode="&#x451;" d="M78 455q0 145 37 240q30 77 98.5 128t158 97t196.5 46q164 0 271 -91.5t107 -294.5q0 -25 -3 -76l-164 -30q-76 -5 -220 -5h-217q15 -172 103 -259t224 -87q57 0 113 16.5t111 48.5l29 -29l-45 -96q-72 -45 -154.5 -67.5t-175.5 -22.5q-218 0 -343.5 126.5t-125.5 355.5z M203 1178q0 50 35.5 85.5t85.5 35.5t85.5 -35.5t35.5 -85.5q0 -51 -35.5 -86.5t-85.5 -35.5t-85.5 35.5t-35.5 86.5zM335 575q90 -8 180 -8q79 0 166 8l1 47q0 123 -45 179.5t-122 56.5q-54 0 -93 -26.5t-58 -74.5t-29 -182zM627 1178q0 50 35.5 85.5t85.5 35.5t85 -35.5 t35 -85.5q0 -51 -35.5 -86.5t-84.5 -35.5q-50 0 -85.5 35.5t-35.5 86.5z" />
<glyph unicode="&#x452;" horiz-adv-x="1210" d="M47 -7v84q116 6 132 21t18 153.5t2 440.5q0 212 -5 382l-53 3q-34 0 -81 -7v52l134 71q0 97 -22 111t-125 16v72q49 0 174 22.5t207 61.5q11 5 19 5q14 0 14 -18v-8q-9 -101 -9 -262q77 -6 170 -6q237 0 378 13l10 -14q-23 -23 -55 -116q-217 9 -343 9q-91 0 -160 -5 l-2 -229q0 -7 2 -55l147 112q79 59 181 59q187 0 278.5 -114.5t91.5 -299.5q0 -265 -126 -455t-338 -242q-41 28 -75 56v25q296 41 296 539q0 158 -60 246.5t-166 88.5q-75 0 -135.5 -39.5t-79 -79.5t-18.5 -123q0 -432 14.5 -457.5t145.5 -28.5v-84q-98 7 -239 7 q-193 0 -322 -7z" />
<glyph unicode="&#x453;" horiz-adv-x="930" d="M63 -7v84q111 4 129 13t25 57t7 338q0 260 -7 308t-24.5 57.5t-129.5 12.5v81q252 -4 267 -4l360 4q109 0 223 6l14 -6q-10 -114 -10 -282h-77l-4 68q-1 101 -22.5 107.5t-76.5 7.5q-12 1 -62 3q-103 4 -162 4q-27 0 -33 -7.5t-6 -38.5q0 -19 -1 -40q-5 -144 -5 -308 l4 -282q0 -46 18.5 -69t162.5 -30v-84q-186 7 -303 7q-56 0 -287 -7zM260 1053l232 224q82 79 110.5 95.5t59.5 16.5q38 0 61.5 -22.5t23.5 -56.5q0 -30 -19.5 -51t-122.5 -75l-246 -131h-99z" />
<glyph unicode="&#x454;" horiz-adv-x="909" d="M53 433q0 134 42 231.5t141.5 154t166.5 102t181 45.5q127 0 227 -36l17 -18q-39 -175 -41 -306h-83q-6 104 -13.5 130.5t-54.5 53.5t-122 27q-121 0 -162 -73t-41 -175v-19q29 2 159 2l121 -2l109 -133l-51 -43q-53 54 -87 75q-39 7 -84 7q-31 0 -161 -4 q18 -149 101 -239t217 -90q111 0 176 35l17 -22q-22 -48 -41 -97q-127 -66 -269 -66q-218 0 -341.5 119t-123.5 341z" />
<glyph unicode="&#x455;" horiz-adv-x="909" d="M80 45q12 87 15 274h85q5 -129 13 -144q22 -41 82.5 -72t140.5 -31q98 0 146.5 40t48.5 106q0 57 -35 90t-150 58q-174 38 -226.5 66.5t-83.5 84.5t-31 134q0 92 46 163t132.5 111.5t228.5 40.5q148 0 275 -48q-14 -81 -19 -252h-79q-6 108 -17 127q-15 29 -57 49 q-58 27 -124 27q-84 0 -130.5 -37.5t-46.5 -94.5q0 -53 42 -84q42 -32 200 -61q109 -20 151 -37q70 -30 106.5 -87.5t36.5 -145.5q0 -169 -131 -259t-312 -90q-60 0 -133 14t-159 41z" />
<glyph unicode="&#x456;" horiz-adv-x="682" d="M85 -6v83q113 4 130.5 14t22.5 56q8 63 8 278q0 93 -3 172l-3 117q0 58 -12.5 71.5t-67.5 15.5l-75 3v77q241 18 397 85l25 -20q-14 -191 -14 -556q0 -211 7 -255q5 -31 18.5 -40t131.5 -18v-83q-181 6 -280 6q-53 0 -285 -6zM208 1288q0 65 45.5 110.5t110.5 45.5 q64 0 109.5 -45.5t45.5 -110.5q0 -64 -45.5 -109.5t-110.5 -45.5q-64 0 -109.5 45.5t-45.5 109.5z" />
<glyph unicode="&#x457;" horiz-adv-x="682" d="M8 1178q0 50 35.5 85.5t85.5 35.5t85.5 -35.5t35.5 -85.5q0 -51 -35.5 -86.5t-85.5 -35.5t-85.5 35.5t-35.5 86.5zM63 -6v83q113 4 130.5 14t22.5 56q8 63 8 278q0 93 -3 172l-3 117q0 58 -12.5 71.5t-67.5 15.5l-75 3v77q241 18 397 85l25 -20q-14 -191 -14 -556 q0 -211 7 -255q5 -31 18.5 -40t131.5 -18v-83q-181 6 -280 6q-53 0 -285 -6zM432 1178q0 50 35.5 85.5t85.5 35.5t85 -35.5t35 -85.5q0 -51 -35.5 -86.5t-84.5 -35.5q-50 0 -85.5 35.5t-35.5 86.5z" />
<glyph unicode="&#x458;" horiz-adv-x="682" d="M20 -460l11 10q40 -5 54 -5q44 0 79 39q47 52 61 184.5t14 518.5q0 179 -5 382q-2 91 -11 111q-6 11 -18.5 15t-129.5 9v77q195 21 320 56l97 29q13 0 13 -14l-1 -26q-14 -230 -15 -548q0 -325 -5 -391q-11 -167 -62 -282t-141 -179t-176 -64q-22 0 -61 5zM208 1288 q0 64 45.5 110t110.5 46q64 0 109.5 -45.5t45.5 -110.5q0 -64 -45.5 -109.5t-110.5 -45.5q-64 0 -109.5 45.5t-45.5 109.5z" />
<glyph unicode="&#x459;" horiz-adv-x="1692" d="M13 1q14 107 15 203l39 13q46 -65 108 -65q115 0 146 153t31 475q0 55 -23 67t-134 16v83q230 -6 287 -6h462q102 0 285 6v-83q-132 -6 -145 -30t-13 -235q0 -19 1 -57q58 6 118 6q236 0 345 -71.5t109 -188.5q0 -114 -117 -202.5t-438 -88.5q-2 0 -91 2q-89 3 -91 3 l-188 -8v47q61 36 88 62q9 118 9 304q0 251 -8 436q-49 3 -91 3h-154q-21 0 -104 -5q-4 -45 -8 -193q-4 -167 -17 -273t-61 -203t-113.5 -143t-143.5 -46q-51 0 -103 19zM1073 313q0 -144 7 -218q50 -9 82 -9q82 0 146 44.5t64 142.5q0 92 -67 138.5t-156 46.5q-28 0 -73 -9 q-3 -72 -3 -136z" />
<glyph unicode="&#x45a;" horiz-adv-x="1759" d="M62 -7v84q116 4 131 23.5t15 346.5q0 371 -14 392t-132 24v83q3 0 61 -2q113 -4 212 -4q115 0 280 6v-83q-138 -4 -145 -32t-7 -172v-118q96 -4 207 -4q122 0 211 4v118q0 159 -13 178.5t-139 25.5v83q165 -6 283 -6q102 0 285 6v-83q-130 -6 -143.5 -28.5t-13.5 -186.5 v-107q58 6 118 6q236 0 345 -71.5t109 -188.5q0 -113 -117 -202t-438 -89q-2 0 -91 2q-89 3 -91 3l-189 -8v47q61 36 88 62q7 73 7 225v128q-117 6 -209 6q-91 0 -209 -6v-128q0 -189 8 -217.5t144 -32.5v-84q-1 0 -61 2q-119 5 -219 5q-99 0 -273 -7zM1141 316 q0 -108 6 -221q52 -9 82 -9q84 0 147.5 45t63.5 139q0 85 -58.5 136.5t-148.5 51.5q-39 0 -89 -9q-3 -79 -3 -133z" />
<glyph unicode="&#x45b;" horiz-adv-x="1251" d="M47 -7v84q116 6 132 21t18 153.5t2 440.5q0 212 -5 382l-53 3q-34 0 -81 -7v52l134 71q0 97 -22 111t-125 16v72q50 0 174.5 23t206.5 61q11 5 19 5q14 0 14 -18q0 -14 -3 -82q-3 -47 -3 -188q77 -6 169 -6q236 0 376 13l10 -14q-23 -23 -55 -116q-218 9 -344 9 q-91 0 -160 -5l1 -51l-2 -181l1 -52l131 112q42 35 79 49.5t108 14.5q157 0 231.5 -78t74.5 -248l-5 -395q0 -115 12 -140.5t132 -27.5v-84q-114 7 -216 7q-103 0 -188 -7l-13 18q20 194 20 389q0 249 -35 317.5t-140 68.5q-69 0 -119 -35.5t-62.5 -75t-12.5 -135.5 q0 -409 14.5 -434.5t145.5 -28.5v-84q-98 7 -239 7q-193 0 -322 -7z" />
<glyph unicode="&#x45c;" horiz-adv-x="1249" d="M64 -7v84q116 4 131 23.5t15 346.5q0 371 -14 392t-132 24v83q1 0 61 -2q110 -4 212 -4q122 0 280 6v-83q-127 -6 -139.5 -27t-12.5 -217v-109q217 184 438 436q62 -6 133 -6q68 0 136 6v-83q-108 -6 -130 -12t-66.5 -40t-256.5 -222l144 -163q248 -282 285 -313t89 -36 v-84q-100 7 -204 7q-82 0 -146 -7q-200 268 -422 483v-115q0 -216 6 -248t146 -36v-84q-1 0 -61 2q-119 5 -219 5q-99 0 -273 -7zM465 1053l233 224q76 74 105 93t65 19q38 0 61.5 -22.5t23.5 -55.5q0 -35 -22 -54.5t-120 -72.5l-247 -131h-99z" />
<glyph unicode="&#x45e;" horiz-adv-x="1139" d="M4 863v82q230 -7 294 -7q89 0 251 7v-82q-93 -4 -110.5 -13.5t-17.5 -31.5q0 -30 98 -277l109 -276l93 218q125 293 125 338q0 21 -17.5 29.5t-107.5 12.5v82l63 -3q101 -4 134 -4q36 0 188 7v-82q-49 0 -80 -15q-13 -7 -23 -22q-16 -22 -126 -276l-186 -426l-173 -394 q-59 -121 -105.5 -169.5t-101.5 -72t-123 -23.5t-144 34q24 99 35 193l27 9q59 -66 137 -66q66 0 109 43t134 249l-223 566l-123 304q-16 37 -34.5 48.5t-101.5 17.5zM298 1158v24q77 37 175 117q130 -83 399 -117l4 -18l-111 -55q-216 7 -467 49z" />
<glyph unicode="&#x45f;" horiz-adv-x="1343" d="M62 -7v86q115 3 130.5 22.5t15.5 328.5q0 387 -13.5 408.5t-132.5 24.5v83q3 0 61 -2q113 -4 212 -4q115 0 280 6v-83q-134 -4 -144 -32.5t-10 -376.5q0 -207 5 -305q3 -47 3 -70h406l3 73q6 97 6 304q0 348 -10.5 375.5t-144.5 31.5v83q165 -6 280 -6q103 0 273 6v-83 q-115 -3 -130 -22.5t-15 -347.5q0 -369 14 -390t131 -24v-86q-2 0 -61 2q-121 5 -170 5q-164 0 -232.5 -15t-84.5 -36t-16 -102v-113h-96v113q0 81 -15.5 102t-84 36t-232.5 15q-42 0 -228 -7z" />
<glyph unicode="&#x490;" horiz-adv-x="1075" d="M73 -7v84q61 0 102 5.5t49.5 16t12 30.5t9.5 163t6 325q0 318 -6.5 485.5t-23.5 184t-149 24.5v85q2 0 57 -3q110 -4 241 -4q196 0 316.5 4t173.5 14t63.5 21.5t13.5 62.5l8 108h84q6 -212 24 -309l-10 -20q-37 -2 -45 -2q-16 0 -182 9q-41 3 -104 3q-82 0 -166 -10 q-17 -127 -17 -391q0 -353 4 -540.5t11.5 -211t26.5 -33.5t171 -17v-84q-148 7 -300 7q-130 0 -370 -7z" />
<glyph unicode="&#x491;" horiz-adv-x="838" d="M63 -7v84q111 4 129 13t25 57t7 338q0 260 -7 308t-24.5 57.5t-129.5 12.5v83q236 -6 310 -6q133 0 238.5 5t118 18t13.5 100q0 19 3 46q0 8 1 22h77q1 -172 10 -280l-14 -7q-174 7 -268 7q-59 0 -68.5 -6.5t-9.5 -41.5q0 -20 -1 -40q-5 -143 -5 -305l4 -282 q0 -46 18.5 -69t162.5 -30v-84q-186 7 -303 7q-56 0 -287 -7z" />
<glyph unicode="&#x2000;" horiz-adv-x="925" />
<glyph unicode="&#x2001;" horiz-adv-x="1851" />
<glyph unicode="&#x2002;" horiz-adv-x="925" />
<glyph unicode="&#x2003;" horiz-adv-x="1851" />
<glyph unicode="&#x2004;" horiz-adv-x="617" />
<glyph unicode="&#x2005;" horiz-adv-x="462" />
<glyph unicode="&#x2006;" horiz-adv-x="308" />
<glyph unicode="&#x2007;" horiz-adv-x="308" />
<glyph unicode="&#x2008;" horiz-adv-x="231" />
<glyph unicode="&#x2009;" horiz-adv-x="370" />
<glyph unicode="&#x200a;" horiz-adv-x="102" />
<glyph unicode="&#x2010;" horiz-adv-x="682" d="M10 398q40 87 66 209q185 -7 302 -7q123 0 281 7l14 -20q-37 -91 -70 -208q-166 6 -297 6q-134 0 -282 -6z" />
<glyph unicode="&#x2011;" horiz-adv-x="682" d="M10 398q40 87 66 209q185 -7 302 -7q123 0 281 7l14 -20q-37 -91 -70 -208q-166 6 -297 6q-134 0 -282 -6z" />
<glyph unicode="&#x2012;" horiz-adv-x="682" d="M10 398q40 87 66 209q185 -7 302 -7q123 0 281 7l14 -20q-37 -91 -70 -208q-166 6 -297 6q-134 0 -282 -6z" />
<glyph unicode="&#x2013;" d="M55 398q40 87 66 209q185 -7 445 -7q233 0 389 7l15 -20q-36 -88 -71 -208q-165 6 -435 6q-248 0 -395 -6z" />
<glyph unicode="&#x2014;" horiz-adv-x="2048" d="M302 398q40 86 66 209q185 -7 687 -7q520 0 678 7l14 -20q-37 -91 -70 -208q-165 6 -679 6q-533 0 -682 -6z" />
<glyph unicode="&#x2018;" horiz-adv-x="569" d="M54 912q110 211 161 300t130 212q56 26 137 57l32 -32q-125 -253 -155 -499q-167 -28 -271 -67z" />
<glyph unicode="&#x2019;" horiz-adv-x="569" d="M54 914q125 253 156 500q168 28 271 67l33 -30q-110 -212 -160.5 -300.5t-129.5 -211.5q-59 -27 -138 -56z" />
<glyph unicode="&#x201a;" horiz-adv-x="682" d="M131 -288q125 250 156 499q170 29 271 67l33 -29l-159 -297q-54 -95 -131 -215q-62 -28 -138 -56z" />
<glyph unicode="&#x201c;" d="M86 891q133 291 274 531q92 47 120 59l36 -28q-61 -137 -89 -246q-37 -141 -51 -281q-148 -23 -263 -65zM506 891q132 290 274 531q87 44 120 59l36 -28q-113 -250 -140 -527q-149 -23 -263 -65z" />
<glyph unicode="&#x201d;" d="M86 889q113 252 140 527q148 22 263 65l27 -30q-130 -286 -274 -531q-89 -46 -120 -59zM506 889q62 138 90 246q37 144 50 281q149 23 263 65l27 -30q-134 -295 -274 -531q-92 -47 -119 -59z" />
<glyph unicode="&#x201e;" d="M86 -299q113 251 140 527q148 22 263 64l27 -29q-130 -286 -274 -532q-82 -42 -120 -58zM506 -299q114 251 140 527q149 22 263 64l27 -29q-134 -296 -274 -532q-85 -44 -119 -58z" />
<glyph unicode="&#x2026;" horiz-adv-x="2048" d="M246 133q0 66 46.5 113t113.5 47q66 0 112.5 -46.5t46.5 -113.5q0 -66 -46.5 -113t-112.5 -47t-113 47t-47 113zM865 133q0 67 46.5 113.5t112.5 46.5t113 -47t47 -113t-47 -113t-113 -47t-112.5 47t-46.5 113zM1483 133q0 66 46.5 113t113.5 47q66 0 113 -46.5 t47 -113.5q0 -66 -47 -113t-113 -47t-113 47t-47 113z" />
<glyph unicode="&#x202f;" horiz-adv-x="370" />
<glyph unicode="&#x2039;" horiz-adv-x="797" d="M172 463v53q172 152 396 379l57 -43q-105 -177 -224 -368l224 -351l-57 -43q-206 208 -396 373z" />
<glyph unicode="&#x203a;" horiz-adv-x="797" d="M172 140l224 351l-224 368l57 43q229 -231 396 -380v-52q-191 -166 -396 -373z" />
<glyph unicode="&#x205f;" horiz-adv-x="462" />
<glyph unicode="&#x20ac;" d="M-24 542l24 88l10 10h57q-1 24 -1 48q0 20 2 59h-82l-10 9l24 88l10 10h68q37 256 171 400q150 161 394 161q172 0 326 -85l13 -15q-14 -56 -26.5 -110t-15.5 -115l-9 -10h-59l-10 11q-2 74 -11 128q-77 87 -208 87q-130 0 -213 -126q-78 -119 -91 -326h508l10 -10 l-24 -87l-10 -10h-488v-107h453l10 -10l-24 -87l-10 -10h-424q17 -197 112.5 -318.5t234.5 -121.5q88 0 157 37q34 18 115 84l25 -23l-46 -102q-148 -116 -312 -116q-222 0 -370 150q-143 154 -179 410h-91z" />
<glyph unicode="&#x2122;" horiz-adv-x="2044" d="M64 1174q13 118 12 215h780q-5 -48 -5 -79l5 -136h-72q-4 86 -37 113t-141 27l-55 -1v-618q0 -33 7 -44t22 -15l92 -5v-62h-427v62q91 1 111 14t20 56v612l-49 1q-116 0 -153 -31.5t-37 -108.5h-73zM920 569v62q71 0 84 12q19 17 19 72v567q0 33 -14 43q-9 7 -72 7v57 h300l225 -521l218 521h300v-57q-70 -1 -78 -5q-22 -10 -22 -45v-574q0 -44 16 -57.5t84 -19.5v-62h-377v62q68 2 85.5 16.5t17.5 58.5v558l-282 -695h-25l-301 695v-554q0 -36 7 -48q9 -15 28 -23q14 -6 64 -8v-62h-277z" />
<glyph unicode="&#x25fc;" horiz-adv-x="965" d="M0 0v965h965v-965h-965z" />
</font>
</defs>
</svg>
