<?xml version="1.0" encoding="UTF-8" standalone="no"?>
<svg width="67px" height="67px" viewBox="0 0 67 67" version="1.1" xmlns="http://www.w3.org/2000/svg" xmlns:xlink="http://www.w3.org/1999/xlink" xmlns:sketch="http://www.bohemiancoding.com/sketch/ns">
    <!-- Generator: Sketch 3.0 (7574) - http://www.bohemiancoding.com/sketch -->
    <title>logo-favicon</title>
    <description>Created with Sketch.</description>
    <defs>
        <path id="path-1" d="M-0.0558333333,32.515 C-0.0558333333,50.4529167 14.486875,64.995625 32.425,64.995625 L32.425,64.995625 C50.3633333,64.995625 64.9060417,50.4529167 64.9060417,32.515 L64.9060417,32.515 C64.9060417,14.5766667 50.3633333,0.035 32.425,0.035 L32.425,0.035 C14.486875,0.035 -0.0558333333,14.5766667 -0.0558333333,32.515"></path>
        <linearGradient x1="50%" y1="0%" x2="50%" y2="100%" id="linearGradient-3">
            <stop stop-color="#4C4C4C" offset="0%"></stop>
            <stop stop-color="#222222" offset="100%"></stop>
        </linearGradient>
        <path id="path-4" d="M-0.0558333333,32.515 C-0.0558333333,50.4529167 14.486875,64.995625 32.425,64.995625 L32.425,64.995625 C50.3633333,64.995625 64.9060417,50.4529167 64.9060417,32.515 L64.9060417,32.515 C64.9060417,14.5766667 50.3633333,0.035 32.425,0.035 L32.425,0.035 C14.486875,0.035 -0.0558333333,14.5766667 -0.0558333333,32.515"></path>
    </defs>
    <g id="Page-1" stroke="none" stroke-width="1" fill="none" fill-rule="evenodd" sketch:type="MSPage">
        <g id="logo" sketch:type="MSLayerGroup" transform="translate(1.000000, 1.000000)">
            <g id="Group-3">
                <mask id="mask-2" sketch:name="Clip 2" fill="white">
                    <use xlink:href="#path-1"></use>
                </mask>
                <use id="Clip-2" stroke="#000000" stroke-width="0.5" sketch:type="MSShapeGroup" xlink:href="#path-1"></use>
                <g id="Fill-1">
                    <use fill="none" sketch:type="MSShapeGroup" mask="url(#mask-2)" xlink:href="#path-4"></use>
                    <use fill="url(#linearGradient-3)" fill-rule="evenodd" xlink:href="#path-4"></use>
                </g>
            </g>
            <path d="M29.6631921,43.7427083 L16.147974,25.5562663 C16.1669628,25.9740201 16.1859513,26.4012619 16.2049401,26.8380046 C16.2144345,27.2177808 16.2215552,27.6260341 16.2263024,28.0627767 C16.2310496,28.4995193 16.2334232,28.9125198 16.2334232,29.3017904 L16.2334232,43.7427083 L14.3108158,43.7427083 L14.3108158,23.0355143 L16.7176354,23.0355143 L30.3467858,41.3358887 C30.3372914,40.9276293 30.3183029,40.5051346 30.2898197,40.0683919 C30.2613364,39.6886157 30.2447215,39.2590003 30.2399743,38.7795329 C30.2352271,38.3000654 30.2328535,37.8134845 30.2328535,37.3197754 L30.2328535,23.0355143 L32.1697025,23.0355143 L32.1697025,43.7427083 L29.6631921,43.7427083 Z M45.2149499,43.7427083 L42.936304,43.7427083 L35.1604251,23.0355143 L37.439071,23.0355143 L42.7654056,37.9321615 C42.9268105,38.3783985 43.0834658,38.8364967 43.2353763,39.3064697 C43.3872868,39.7764428 43.5249536,40.2060582 43.6483809,40.5953288 C43.7813025,41.0510602 43.9142222,41.5020377 44.0471439,41.9482747 C44.1800656,41.5305209 44.3224795,41.0937848 44.47439,40.6380534 C44.6073116,40.2487828 44.7497256,39.8167938 44.9016361,39.3420736 C45.0535465,38.8673533 45.214949,38.3973873 45.3858483,37.9321615 L50.6694583,23.0355143 L52.9481042,23.0355143 L45.2149499,43.7427083 Z" id="NV" fill="#FFFFFF" sketch:type="MSShapeGroup"></path>
        </g>
    </g>
</svg>