<svg width="67" height="67" viewBox="0 0 67 67" xmlns="http://www.w3.org/2000/svg" xmlns:xlink="http://www.w3.org/1999/xlink"><title>logo-favicon</title><defs><path id="a" d="M-.056 32.515c0 17.938 14.543 32.48 32.48 32.48 17.94 0 32.482-14.542 32.482-32.48 0-17.938-14.543-32.48-32.48-32.48-17.94 0-32.482 14.542-32.482 32.48"/><linearGradient x1="50%" y1="0%" x2="50%" y2="100%" id="d"><stop stop-color="#4C4C4C" offset="0%"/><stop stop-color="#222" offset="100%"/></linearGradient><path id="c" d="M-.056 32.515c0 17.938 14.543 32.48 32.48 32.48 17.94 0 32.482-14.542 32.482-32.48 0-17.938-14.543-32.48-32.48-32.48-17.94 0-32.482 14.542-32.482 32.48"/></defs><g fill="none" fill-rule="evenodd"><g transform="translate(1 1)"><mask id="b" fill="#fff"><use xlink:href="#a"/></mask><use stroke="#000" stroke-width=".5" xlink:href="#a"/><use mask="url(#b)" xlink:href="#c"/><use fill="url(#d)" xlink:href="#c"/></g><path d="M30.663 44.743L17.148 26.556c.02.418.038.845.057 1.282.01.38.017.788.02 1.225.006.437.008.85.008 1.24v14.44H15.31V24.036h2.408l13.63 18.3c-.01-.408-.03-.83-.058-1.268-.03-.38-.045-.81-.05-1.288-.005-.48-.007-.967-.007-1.46V24.036h1.937v20.707h-2.507zm15.552 0h-2.28L36.16 24.036h2.28l5.325 14.896c.162.446.318.904.47 1.374.152.47.29.9.413 1.29.133.455.266.906.4 1.352.132-.417.274-.854.426-1.31.133-.39.276-.82.428-1.296.152-.475.313-.945.484-1.41l5.283-14.896h2.278l-7.733 20.707z" fill="#FFF"/></g></svg>